<svg width="29" height="29" viewBox="0 0 29 29" fill="none" xmlns="http://www.w3.org/2000/svg">
    <path d="M14.4825 28.47C6.78119 28.47 0.556641 22.2474 0.556641 14.5441C0.556641 6.84266 6.77923 0.618164 14.4825 0.618164C22.1839 0.618164 28.4084 6.8407 28.4084 14.5441C28.4084 22.2454 22.1859 28.47 14.4825 28.47Z" fill="#30313F"/>
    <g clip-path="url(#clip0_62_3170)">
    <path d="M20.2004 11.5632C18.361 8.54121 15.5902 10.6436 15.5902 10.6436C15.4105 10.7794 15.0791 10.8911 14.8539 10.8916L14.1118 10.8921C13.8866 10.8924 13.5553 10.7807 13.3758 10.6449C13.3758 10.6449 10.6047 8.54199 8.7651 11.5639C6.926 14.5849 7.66715 17.8748 7.66715 17.8748C7.79699 18.6804 8.22495 19.2179 9.03257 19.1504C9.83786 19.0831 11.5858 16.981 11.5858 16.981C11.7302 16.8078 12.0327 16.6663 12.2573 16.6663L16.7068 16.6655C16.9317 16.6655 17.234 16.807 17.3781 16.9802C17.3781 16.9802 19.1263 19.0824 19.9329 19.1496C20.7395 19.2171 21.1685 18.6791 21.2975 17.874C21.2973 17.874 22.0397 14.5846 20.2004 11.5632ZM12.8105 14.0229H11.8564V14.9425C11.8564 14.9425 11.6544 15.0967 11.3417 15.0928C11.0296 15.0881 10.8883 14.9245 10.8883 14.9245V14.0232H9.98718C9.98718 14.0232 9.87473 13.9079 9.84461 13.6043C9.81501 13.3007 9.969 13.0553 9.969 13.0553H10.9233V12.1012C10.9233 12.1012 11.1197 11.9961 11.4019 12.0041C11.6845 12.0129 11.8915 12.1192 11.8915 12.1192L11.8876 13.0551H12.7887C12.7887 13.0551 12.946 13.2571 12.959 13.5012C12.972 13.7456 12.8105 14.0229 12.8105 14.0229ZM17.1867 15.071C16.7689 15.071 16.4321 14.7332 16.4321 14.3158C16.4321 13.8977 16.7689 13.5607 17.1867 13.5607C17.6027 13.5607 17.9421 13.8977 17.9421 14.3158C17.9421 14.7334 17.6027 15.071 17.1867 15.071ZM17.1867 12.9933C16.7689 12.9933 16.4321 12.6557 16.4321 12.2384C16.4321 11.8203 16.7689 11.4832 17.1867 11.4832C17.6027 11.4832 17.9421 11.8203 17.9421 12.2384C17.9421 12.6559 17.6027 12.9933 17.1867 12.9933ZM19.0673 14.1086C18.6495 14.1086 18.3127 13.771 18.3127 13.3534C18.3127 12.9356 18.6495 12.5983 19.0673 12.5983C19.4834 12.5983 19.8228 12.9356 19.8228 13.3534C19.8228 13.771 19.4834 14.1086 19.0673 14.1086Z" fill="white"/>
    </g>
    <defs>
    <clipPath id="clip0_62_3170">
    <rect width="13.9259" height="13.9259" fill="white" transform="translate(7.51953 7.58111)"/>
    </clipPath>
    </defs>
</svg>
