<svg xmlns="http://www.w3.org/2000/svg" width="171" height="27" fill="none" viewBox="0 0 171 27"><path fill="#57576A" stroke="#20202E" stroke-width="1.24" d="M160.83 1.11735H160.047L160.226 1.87952L165.797 25.5536L165.909 26.0317H166.4H169.186H169.969L169.789 25.2695L164.219 1.59545L164.106 1.11735H163.615H160.83Z"/><path fill="#57576A" stroke="#20202E" stroke-width="1.24" d="M154.564 1.11735H153.781L153.961 1.87952L159.531 25.5536L159.644 26.0317H160.135H162.92H163.703L163.524 25.2695L157.953 1.59545L157.841 1.11735H157.35H154.564Z"/><path fill="#57576A" stroke="#20202E" stroke-width="1.24" d="M148.297 1.11735H147.514L147.693 1.87952L153.264 25.5536L153.376 26.0317H153.867H156.652H157.435L157.256 25.2695L151.686 1.59545L151.573 1.11735H151.082H148.297Z"/><path fill="#57576A" stroke="#20202E" stroke-width="1.24" d="M1.37891 1.11735H0.758768V1.73749V25.4115V26.0317H1.37891H150.386H151.178L150.988 25.2629L145.145 1.58888L145.028 1.11735H144.543H1.37891Z"/></svg>