<svg xmlns="http://www.w3.org/2000/svg" xmlns:xlink="http://www.w3.org/1999/xlink" id="Layer_1" width="24" height="24" x="0" y="0" version="1.1" viewBox="0 0 504.123 504.123" style="enable-background:new 0 0 504.123 504.123" xml:space="preserve"><linearGradient id="SVGID_1_" x1="29.772" x2="-11.648" y1="598.915" y2="598.915" gradientTransform="matrix(7.8769 0 0 -7.8769 364.0537 4969.6694)" gradientUnits="userSpaceOnUse"><stop offset="0" style="stop-color:#29d3da"/><stop offset=".519" style="stop-color:#07f"/><stop offset=".999" style="stop-color:#064093"/><stop offset="1" style="stop-color:#084698"/></linearGradient><polygon style="fill:url(#SVGID_1_)" points="252.069 367.002 320.63 435.554 504.123 252.062 320.63 68.569 252.069 137.121 367.002 252.062"/><linearGradient id="SVGID_2_" x1="-5.944" x2="8.653" y1="572.005" y2="609.062" gradientTransform="matrix(7.8769 0 0 -7.8769 364.0537 4969.6694)" gradientUnits="userSpaceOnUse"><stop offset="0" style="stop-color:#29d3da"/><stop offset=".519" style="stop-color:#07f"/><stop offset=".999" style="stop-color:#064093"/><stop offset="1" style="stop-color:#084698"/></linearGradient><polyline style="fill:url(#SVGID_2_)" points="367.002 252.062 252.069 367.002 320.63 435.554 504.123 252.062"/><linearGradient id="SVGID_3_" x1="-46.601" x2="-14" y1="598.915" y2="598.915" gradientTransform="matrix(7.8769 0 0 -7.8769 364.0537 4969.6694)" gradientUnits="userSpaceOnUse"><stop offset=".012" style="stop-color:#e0b386"/><stop offset=".65" style="stop-color:#da498c"/><stop offset="1" style="stop-color:#961484"/></linearGradient><polygon style="fill:url(#SVGID_3_)" points="137.129 252.062 252.069 137.121 183.509 68.569 0 252.062 183.509 435.554 252.069 367.002"/><linearGradient id="SVGID_4_" x1="-20.998" x2="-35.458" y1="567.005" y2="605.611" gradientTransform="matrix(7.8769 0 0 -7.8769 364.0537 4969.6694)" gradientUnits="userSpaceOnUse"><stop offset=".012" style="stop-color:#e0b386"/><stop offset=".65" style="stop-color:#da498c"/><stop offset="1" style="stop-color:#961484"/></linearGradient><polyline style="fill:url(#SVGID_4_)" points="0 252.062 183.509 435.554 252.069 367.002 137.129 252.062"/><linearGradient id="SVGID_5_" x1="33.172" x2="-43.318" y1="561.203" y2="602.623" gradientTransform="matrix(7.8769 0 0 -7.8769 364.0537 4969.6694)" gradientUnits="userSpaceOnUse"><stop offset="0" style="stop-color:#29d3da"/><stop offset=".519" style="stop-color:#07f"/><stop offset=".999" style="stop-color:#064093"/><stop offset="1" style="stop-color:#084698"/></linearGradient><polygon style="fill:url(#SVGID_5_)" points="137.121 252.069 68.569 320.63 252.062 504.123 435.554 320.63 367.002 252.069 252.062 367.002"/><linearGradient id="SVGID_6_" x1="-41.134" x2="-4.073" y1="590.644" y2="576.044" gradientTransform="matrix(7.8769 0 0 -7.8769 364.0537 4969.6694)" gradientUnits="userSpaceOnUse"><stop offset="0" style="stop-color:#29d3da"/><stop offset=".519" style="stop-color:#07f"/><stop offset=".999" style="stop-color:#064093"/><stop offset="1" style="stop-color:#084698"/></linearGradient><polyline style="fill:url(#SVGID_6_)" points="252.062 367.002 137.121 252.069 68.569 320.63 252.062 504.123"/><linearGradient id="SVGID_7_" x1="-14.133" x2="-14.25" y1="631.183" y2="598.58" gradientTransform="matrix(7.8769 0 0 -7.8769 364.0537 4969.6694)" gradientUnits="userSpaceOnUse"><stop offset=".012" style="stop-color:#e0b386"/><stop offset=".65" style="stop-color:#da498c"/><stop offset="1" style="stop-color:#961484"/></linearGradient><polygon style="fill:url(#SVGID_7_)" points="252.062 137.129 367.002 252.069 435.554 183.509 252.062 0 68.569 183.509 137.121 252.069"/><linearGradient id="SVGID_8_" x1="-46.13" x2="-7.518" y1="605.695" y2="620.156" gradientTransform="matrix(7.8769 0 0 -7.8769 364.0537 4969.6694)" gradientUnits="userSpaceOnUse"><stop offset=".012" style="stop-color:#e0b386"/><stop offset=".65" style="stop-color:#da498c"/><stop offset="1" style="stop-color:#961484"/></linearGradient><polyline style="fill:url(#SVGID_8_)" points="252.062 0 68.569 183.509 137.121 252.069 252.062 137.129"/></svg>