<svg width="40" height="40" viewBox="0 0 40 40" fill="none" xmlns="http://www.w3.org/2000/svg">
    <g clip-path="url(#clip0_62_3114)">
    <rect x="0.503906" y="0.0338745" width="39.6888" height="39.6888" fill="url(#paint0_linear_62_3114)"/>
    <g clip-path="url(#clip1_62_3114)">
    <path d="M21.4292 27.2217C21.4448 27.2189 21.4601 27.2148 21.4752 27.2096C21.4778 27.2087 21.4804 27.2078 21.4829 27.2069C21.4985 27.2012 21.5138 27.1944 21.5285 27.1863C21.529 27.186 21.5295 27.1859 21.53 27.1856C21.5324 27.1843 21.5345 27.1828 21.5368 27.1814C21.5431 27.1777 21.5495 27.1738 21.5556 27.1696C21.5599 27.1667 21.5639 27.1636 21.568 27.1606C21.5723 27.1572 21.5769 27.1539 21.5812 27.1503C21.5865 27.146 21.5915 27.1412 21.5965 27.1365C21.5988 27.1344 21.6011 27.1325 21.6033 27.1303C21.605 27.1286 21.6065 27.1271 21.6081 27.1254C21.6084 27.1251 21.6088 27.1247 21.609 27.1245C26.3942 22.3366 25.7846 19.6925 25.7563 19.5823C25.7109 19.4055 25.5305 19.2987 25.3535 19.3441C25.1765 19.3895 25.0699 19.5699 25.1154 19.7469C25.1167 19.7522 20.0987 23.9277 20.0987 23.9277C20.0101 23.768 19.8085 23.7104 19.6488 23.7992C19.489 23.8879 19.4315 24.0894 19.5202 24.2491L21.0761 27.05C21.0762 27.0503 21.0765 27.0506 21.0766 27.0509L21.08 27.0571C21.0807 27.0584 21.0817 27.0595 21.0825 27.0608C21.0883 27.0711 21.0948 27.0809 21.1019 27.0907C21.1041 27.0937 21.1062 27.0968 21.1085 27.0997C21.116 27.1093 21.124 27.1186 21.1327 27.1275C21.1337 27.1284 21.1345 27.1297 21.1354 27.1306C21.1362 27.1313 21.1371 27.1318 21.1378 27.1326C21.1485 27.1431 21.1598 27.1525 21.1716 27.1612C21.1745 27.1634 21.1773 27.1656 21.1803 27.1676C21.193 27.1765 21.2063 27.1845 21.2199 27.1915C21.2216 27.1924 21.2234 27.193 21.2251 27.1939C21.2389 27.2006 21.2531 27.2063 21.2675 27.211C21.2688 27.2114 21.2701 27.2119 21.2714 27.2123C21.2864 27.2169 21.3016 27.2204 21.3171 27.2227C21.32 27.2233 21.3231 27.2237 21.326 27.224C21.3413 27.2261 21.3566 27.2272 21.3719 27.2271C21.3743 27.2271 21.3765 27.2268 21.3789 27.2267C21.3931 27.2263 21.4075 27.225 21.4216 27.2227C21.4243 27.2224 21.4267 27.2222 21.4292 27.2217Z" fill="#EE5253"/>
    <path d="M15.7325 19.8816C15.8213 19.7218 15.7637 19.5202 15.604 19.4317C15.604 19.4317 19.7831 14.4145 19.789 14.4158L19.7847 14.4147L19.9493 13.7738C19.839 13.7454 17.1952 13.1361 12.4074 17.9213C12.407 17.9217 12.4067 17.922 12.4064 17.9222C12.4047 17.9239 12.4032 17.9254 12.4016 17.9271C12.3993 17.9293 12.3975 17.9316 12.3953 17.9339C12.3906 17.9389 12.3859 17.9439 12.3815 17.9492C12.3779 17.9535 12.3746 17.958 12.3713 17.9625C12.3683 17.9665 12.3651 17.9706 12.3622 17.9748C12.358 17.9809 12.3542 17.9872 12.3505 17.9936C12.3492 17.996 12.3476 17.9981 12.3463 18.0004C12.3459 18.0009 12.3458 18.0014 12.3455 18.0019C12.3374 18.0167 12.3307 18.0318 12.325 18.0473C12.3241 18.05 12.3231 18.0527 12.3222 18.0554C12.3171 18.0705 12.313 18.0856 12.3102 18.1011C12.3097 18.1037 12.3094 18.1063 12.309 18.1089C12.3068 18.1229 12.3055 18.137 12.3051 18.1511C12.305 18.1536 12.3047 18.1561 12.3047 18.1585C12.3046 18.1738 12.3057 18.189 12.3078 18.2041C12.3082 18.2072 12.3086 18.2102 12.309 18.2133C12.3115 18.2288 12.3149 18.2439 12.3195 18.2589C12.3199 18.2602 12.3204 18.2616 12.3208 18.2629C12.3255 18.2773 12.3312 18.2914 12.3379 18.3052C12.3387 18.307 12.3395 18.3087 12.3404 18.3104C12.3473 18.3241 12.3553 18.3372 12.3642 18.35C12.3663 18.353 12.3684 18.3559 12.3706 18.3588C12.3794 18.3705 12.3888 18.3818 12.3993 18.3925C12.4 18.3933 12.4005 18.3941 12.4013 18.3949C12.4022 18.3958 12.4034 18.3966 12.4043 18.3976C12.4133 18.4063 12.4226 18.4143 12.4322 18.4218C12.4351 18.4241 12.4381 18.4262 12.4412 18.4284C12.4509 18.4355 12.4608 18.442 12.471 18.4478C12.4723 18.4486 12.4735 18.4496 12.4748 18.4502L12.4809 18.4537C12.4812 18.4539 12.4815 18.4539 12.4818 18.4542L15.2825 20.01C15.4423 20.0989 15.6438 20.0413 15.7325 19.8816Z" fill="#FF6B6B"/>
    <path d="M14.4251 21.6678C14.333 21.5757 14.3035 21.4383 14.3496 21.3165C15.2214 19.0159 18.5564 14.8906 20.5284 12.9186C23.6795 9.76746 27.044 8.28779 30.8142 8.39502C30.9895 8.40002 31.1305 8.54102 31.1355 8.71636C31.2428 12.4864 29.7631 15.8509 26.6119 19.0022C24.64 20.9741 20.5148 24.3092 18.2141 25.181C18.0924 25.2271 17.9549 25.1975 17.8629 25.1055L14.4251 21.6678Z" fill="#E4E8EB"/>
    <path d="M31.1364 8.71631C31.1315 8.54093 30.9904 8.39998 30.8151 8.39497C30.6098 8.3891 30.4059 8.38884 30.203 8.39245C30.1407 11.9159 28.6564 15.0865 25.6768 18.0661C23.7049 20.0381 19.5796 23.3731 17.279 24.2448C17.1573 24.291 17.0198 24.2614 16.9277 24.1694L14.4258 21.6676C14.4259 21.6676 14.4259 21.6677 14.426 21.6677L17.8638 25.1054C17.9558 25.1974 18.0933 25.227 18.215 25.1809C20.5157 24.3091 24.6409 20.9741 26.6128 19.0021C29.7641 15.8509 31.2437 12.4864 31.1364 8.71631Z" fill="#CAD0D7"/>
    <path d="M15.0876 19.8342C14.7702 20.376 14.5153 20.8793 14.3496 21.3166C14.3035 21.4383 14.333 21.5757 14.4251 21.6678L17.8628 25.1054C17.9549 25.1975 18.0923 25.227 18.2141 25.1809C18.6513 25.0152 19.1546 24.7604 19.6964 24.443L15.0876 19.8342Z" fill="#576574"/>
    <path d="M9.09755 30.4331C8.79631 30.1318 8.78099 29.612 9.05063 28.8437C9.24346 28.2943 9.58043 27.613 10.052 26.819C10.864 25.4517 11.9216 24.021 12.3999 23.5428C12.879 23.0636 13.5162 22.7997 14.1938 22.7997C14.8714 22.7997 15.5085 23.0636 15.9876 23.5428C16.9767 24.5319 16.9767 26.1413 15.9877 27.1305C15.5092 27.6089 14.0786 28.6665 12.7115 29.4785C11.9174 29.9501 11.2362 30.287 10.6868 30.4799C9.91856 30.7495 9.39869 30.7343 9.09755 30.4331Z" fill="#FF6B6B"/>
    <path d="M15.9871 23.5425C15.8265 23.3819 15.6478 23.246 15.4561 23.1357C16.0133 24.1051 15.8786 25.3666 15.0511 26.1942C14.5727 26.6725 13.142 27.7301 11.7749 28.5421C10.9808 29.0137 10.2996 29.3506 9.75025 29.5436C9.40358 29.6653 9.108 29.7284 8.85977 29.7339C8.85303 30.0358 8.93167 30.2674 9.09695 30.4328C9.3981 30.734 9.91797 30.7492 10.6862 30.4796C11.2356 30.2867 11.9168 29.9498 12.7109 29.4782C14.078 28.6663 15.5087 27.6086 15.9871 27.1302C16.9762 26.141 16.9762 24.5316 15.9871 23.5425Z" fill="#EE5253"/>
    <path d="M16.614 22.9188C16.4847 22.7896 16.2752 22.7896 16.146 22.9188L15.9121 23.1527L16.3801 23.6206L16.614 23.3867C16.7431 23.2575 16.7431 23.048 16.614 22.9188Z" fill="#222F3E"/>
    <path d="M15.3659 21.6709C15.2367 21.5416 15.0272 21.5416 14.8979 21.6709L14.6641 21.9047L15.132 22.3727L15.3659 22.1388C15.4951 22.0096 15.4951 21.8001 15.3659 21.6709Z" fill="#222F3E"/>
    <path d="M20.4055 19.1238C20.1138 18.8323 19.9531 18.4444 19.9531 18.032C19.9531 17.6195 20.1138 17.2317 20.4055 16.94C20.6971 16.6484 21.0849 16.4878 21.4973 16.4877C21.9098 16.4877 22.2976 16.6483 22.5893 16.9399C22.8809 17.2316 23.0416 17.6195 23.0416 18.0319C23.0416 18.4444 22.881 18.8323 22.5892 19.1238C21.9872 19.7259 21.0077 19.7259 20.4055 19.1238Z" fill="#54A0FF"/>
    <path d="M24.1508 15.3798C23.5487 14.7778 23.5487 13.7981 24.1508 13.196C24.7529 12.594 25.7326 12.594 26.3346 13.196C26.6262 13.4877 26.7869 13.8755 26.787 14.288C26.787 14.7004 26.6263 15.0883 26.3346 15.38C25.7326 15.982 24.7529 15.982 24.1508 15.3798Z" fill="#54A0FF"/>
    <path d="M26.7857 14.2878C26.7856 13.8753 26.6249 13.4875 26.3332 13.1958C26.1662 13.0288 25.97 12.9083 25.7609 12.8339C25.8192 12.998 25.8496 13.1726 25.8496 13.3518C25.8496 13.7642 25.689 14.152 25.3973 14.4437C24.9626 14.8783 24.3312 14.9991 23.7871 14.806C23.8614 15.0156 23.9821 15.2122 24.1495 15.3796C24.7517 15.9818 25.7314 15.9818 26.3333 15.3798C26.625 15.0881 26.7857 14.7002 26.7857 14.2878Z" fill="#2E86DE"/>
    <path d="M23.0415 18.0318C23.0415 17.6194 22.8808 17.2316 22.5891 16.9399C22.4221 16.7729 22.2259 16.6523 22.0168 16.578C22.0751 16.742 22.1055 16.9166 22.1055 17.0958C22.1055 17.5083 21.9449 17.8961 21.6532 18.1878C21.2185 18.6224 20.5871 18.7431 20.043 18.5502C20.1173 18.7597 20.238 18.9563 20.4054 19.1237C21.0075 19.7258 21.9872 19.7258 22.5892 19.1238C22.8809 18.8321 23.0415 18.4443 23.0415 18.0318Z" fill="#2E86DE"/>
    <path d="M11.0681 28.4629C10.8101 28.2049 10.9751 27.7946 11.1705 27.4272C11.3313 27.1249 11.5796 26.7383 11.9086 26.2782C12.47 25.4932 13.1398 24.6752 13.3365 24.4785C13.8095 24.0054 14.5793 24.0054 15.0523 24.4785C15.5254 24.9515 15.5254 25.7213 15.0523 26.1944C14.8556 26.3912 14.0375 27.061 13.2527 27.6223C12.7926 27.9513 12.4062 28.1996 12.1037 28.3604C11.7364 28.5558 11.326 28.7208 11.0681 28.4629Z" fill="#FECA57"/>
    <path d="M30.8143 8.39498C29.4861 8.35725 28.2085 8.51731 26.9727 8.87712L30.6535 12.558C31.0133 11.3222 31.1734 10.0445 31.1356 8.71632C31.1307 8.54099 30.9897 8.39994 30.8143 8.39498Z" fill="#FF6B6B"/>
    <path d="M18.3433 25.1303C18.3677 25.1204 18.3921 25.1102 18.4169 25.0998C18.4276 25.0954 18.4382 25.0909 18.4489 25.0864C18.4778 25.074 18.5069 25.0613 18.5363 25.0484C18.5418 25.0459 18.5472 25.0437 18.5527 25.0412C18.5867 25.0261 18.6209 25.0105 18.6554 24.9945C18.6675 24.989 18.6797 24.9833 18.6917 24.9776C18.7152 24.9666 18.7389 24.9555 18.7626 24.9441C18.7765 24.9374 18.7905 24.9308 18.8044 24.924C18.8286 24.9123 18.8529 24.9004 18.8772 24.8883C18.8897 24.8821 18.9021 24.8762 18.9147 24.8698C18.9484 24.853 18.9823 24.8358 19.0165 24.8183C19.0335 24.8096 19.0507 24.8006 19.0678 24.7917C19.0872 24.7816 19.1067 24.7715 19.1262 24.7612C19.1454 24.7511 19.1645 24.7409 19.1838 24.7306C19.2016 24.7211 19.2195 24.7115 19.2374 24.7019C19.2575 24.6911 19.2777 24.6802 19.2981 24.6691C19.3059 24.6649 19.3138 24.6604 19.3216 24.6561C19.37 24.6295 19.4187 24.6024 19.4678 24.5747C19.4812 24.5673 19.4945 24.5596 19.508 24.5521C19.5328 24.5381 19.5574 24.5239 19.5823 24.5096C19.5944 24.5026 19.6067 24.4956 19.6188 24.4885C19.6448 24.4734 19.6708 24.4583 19.6971 24.443L18.761 23.507C18.2193 23.8244 17.716 24.0793 17.2788 24.2449C17.157 24.2911 17.0196 24.2615 16.9275 24.1695L14.4258 21.6678L17.8636 25.1055C17.9556 25.1975 18.093 25.2271 18.2148 25.181C18.2473 25.1687 18.2803 25.1557 18.3135 25.1424C18.3234 25.1384 18.3333 25.1343 18.3433 25.1303Z" fill="#222F3E"/>
    <path d="M30.2015 8.39245C30.1818 9.50226 30.0208 10.5771 29.7168 11.6219L30.6528 12.558C30.6736 12.4868 30.6934 12.4155 30.7128 12.344C30.717 12.3286 30.721 12.3132 30.7252 12.2978C30.7812 12.0883 30.8314 11.8775 30.876 11.6655C30.8815 11.6398 30.8868 11.614 30.8921 11.5882C30.9051 11.5244 30.9178 11.4605 30.9298 11.3963C30.9344 11.3715 30.9386 11.3466 30.9431 11.3219C30.9625 11.2144 30.9804 11.1069 30.9969 10.9989C31.0032 10.9575 31.0096 10.9162 31.0155 10.8747C31.023 10.822 31.0301 10.7693 31.0369 10.7163C31.0436 10.6645 31.0498 10.6127 31.0558 10.5608C31.0622 10.5065 31.0683 10.4523 31.074 10.398C31.0822 10.3181 31.0896 10.2382 31.0963 10.158C31.0996 10.1178 31.1025 10.0774 31.1055 10.0371C31.1103 9.97043 31.1148 9.9038 31.1186 9.83705C31.1206 9.80223 31.1228 9.7675 31.1245 9.73269C31.1293 9.63495 31.1331 9.53699 31.1358 9.43868C31.1364 9.41361 31.1366 9.38833 31.1371 9.36317C31.1388 9.28192 31.1397 9.20055 31.1398 9.11895C31.1398 9.08896 31.1399 9.05889 31.1398 9.02891C31.1392 8.92499 31.1379 8.8208 31.1349 8.71627C31.13 8.54089 30.9889 8.39994 30.8136 8.39493C30.6082 8.3891 30.4043 8.38884 30.2015 8.39245Z" fill="#EE5253"/>
    </g>
    <path d="M0.503906 -0.586263H-0.116232V0.0338745V14.9172V16.4143L0.94241 15.3557L15.8257 0.472378L16.8844 -0.586263H15.3872H0.503906Z" fill="#57576A" stroke="#20202E" stroke-width="1.24028"/>
    <path d="M41.4336 41.5831L42.0537 41.5831L42.0537 40.963L42.0537 26.0797L42.0537 24.5825L40.9951 25.6412L26.1118 40.5245L25.0531 41.5831L26.5503 41.5831L41.4336 41.5831Z" fill="#57576A" stroke="#20202E" stroke-width="1.24028"/>
    </g>
    <defs>
    <linearGradient id="paint0_linear_62_3114" x1="30.7893" y1="12.0823" x2="10.0658" y2="13.0683" gradientUnits="userSpaceOnUse">
    <stop stop-color="#61FFD9"/>
    <stop offset="1" stop-color="#82E8FF"/>
    </linearGradient>
    <clipPath id="clip0_62_3114">
    <rect width="38.9925" height="38.9925" fill="white" transform="translate(0.503906 0.0338745)"/>
    </clipPath>
    <clipPath id="clip1_62_3114">
    <rect width="22.2814" height="22.2814" fill="white" transform="translate(8.85938 8.38959)"/>
    </clipPath>
    </defs>
</svg>
