<svg width="40" height="40" viewBox="0 0 40 40" fill="none" xmlns="http://www.w3.org/2000/svg">
    <g clip-path="url(#clip0_62_3042)">
    <rect x="0.0898438" y="0.0338745" width="39.6888" height="39.6888" fill="url(#paint0_linear_62_3042)"/>
    <g clip-path="url(#clip1_62_3042)">
    <path d="M15.1866 12.0597V11.9658C15.1866 11.5936 14.8849 11.2919 14.5127 11.2919H13.2422C12.87 11.2919 12.5684 11.5936 12.5684 11.9658V12.0122L15.1866 12.0597Z" fill="#EDC963"/>
    <path d="M26.6065 12.0122V11.9658C26.6065 11.5936 26.3048 11.2919 25.9326 11.2919H24.6621C24.29 11.2919 23.9883 11.5936 23.9883 11.9658V12.0597L26.6065 12.0122Z" fill="#EDC963"/>
    <path d="M26.6065 12.8208V12.0122C26.2164 11.879 25.7983 11.8063 25.3631 11.8063C24.8786 11.8063 24.4152 11.8961 23.9883 12.0596V12.8683L26.6065 12.8208Z" fill="#E7B93E"/>
    <path d="M13.8117 12.6149C14.2963 12.6149 14.7597 12.7047 15.1866 12.8683V11.9658C15.1866 11.5936 14.8849 11.2919 14.5127 11.2919H13.2422C12.87 11.2919 12.5684 11.5936 12.5684 11.9658V12.8208C12.9584 12.6876 13.3765 12.6149 13.8117 12.6149Z" fill="#EDC963"/>
    <path d="M15.1866 12.8683V12.0597C14.7597 11.8961 14.2963 11.8063 13.8117 11.8063C13.3765 11.8063 12.9584 11.8791 12.5684 12.0122V12.8208L15.1866 12.8683Z" fill="#E7B93E"/>
    <path d="M9.91689 27.091C11.9351 27.9859 12.9225 26.6445 13.3641 25.3352L14.4316 22.1567C14.4317 22.1567 14.4317 22.1567 14.4318 22.1568L14.4317 22.1567L14.6644 21.8683C14.6644 21.8683 15.3228 22.2246 15.8822 22.2246C16.5493 22.2246 17.1541 21.9593 17.5979 21.5289C17.639 21.489 17.6946 21.4676 17.7519 21.4676H21.4204C21.4777 21.4676 21.5333 21.489 21.5744 21.5289C22.0183 21.9593 22.6231 22.2246 23.2901 22.2246C23.8495 22.2246 24.508 21.8683 24.508 21.8683L24.7406 22.1567L25.8076 25.3336C26.2482 26.644 27.9784 27.6973 29.2554 27.1673C30.0276 26.8467 30.6922 25.8819 30.6922 24.9777L29.1748 15.9415L29.1738 15.9423C28.9193 14.0634 27.3099 12.6149 25.3613 12.6149C24.2613 12.6149 23.27 13.077 22.5689 13.817H16.6033C15.9022 13.077 14.9109 12.6149 13.811 12.6149C11.8623 12.6149 10.253 14.0634 9.99844 15.9423L9.99744 15.9415L8.47852 24.9867L8.48004 24.9777C8.4454 26.0911 9.14457 26.7704 9.91689 27.091Z" fill="#454D58"/>
    <path d="M9.91876 26.7769C9.14644 26.4564 8.61773 25.7665 8.48191 24.9777L8.48039 24.9867C8.29644 26.0822 8.89277 27.1597 9.91872 27.5855C11.1959 28.1157 12.6549 27.4524 13.0952 26.1414L13.366 25.3352C12.9244 26.6446 11.1952 27.3067 9.91876 26.7769Z" fill="#3C434C"/>
    <path d="M30.6952 24.9779C30.5594 25.7666 30.0306 26.4565 29.2583 26.7771C27.9813 27.3071 26.2512 26.6442 25.8105 25.3337L26.0818 26.1416C26.5221 27.4526 27.9811 28.1158 29.2583 27.5857C30.2842 27.1598 30.8806 26.0823 30.6966 24.9869L30.6952 24.9779Z" fill="#3C434C"/>
    <path d="M24.5676 21.636C24.5203 21.495 24.351 21.4379 24.2283 21.522C23.9508 21.7121 23.7179 21.8203 23.292 21.8203C22.6249 21.8203 22.0202 21.555 21.5764 21.1246C21.5352 21.0847 21.4796 21.0633 21.4223 21.0633H17.7538C17.6965 21.0633 17.6409 21.0847 17.5998 21.1246C17.1559 21.555 16.5512 21.8203 15.8841 21.8203C15.4582 21.8203 15.2253 21.7121 14.9479 21.522C14.8251 21.4379 14.6559 21.495 14.6085 21.636L14.4336 22.1567C14.8407 22.4534 15.3417 22.6289 15.884 22.6289C16.5822 22.6289 17.2121 22.3383 17.6607 21.8719H21.5153C21.9639 22.3383 22.5938 22.6289 23.292 22.6289C23.8343 22.6289 24.3354 22.4534 24.7425 22.1567L24.5676 21.636Z" fill="#3C434C"/>
    <path d="M14.9941 19.7875C14.9941 20.1884 15.5297 20.8433 15.9696 20.8433C16.4094 20.8433 16.945 20.1853 16.945 19.7875C16.7863 19.4051 16.4094 19.136 15.9696 19.136C15.5297 19.136 15.1528 19.4051 14.9941 19.7875Z" fill="#DAD8DB"/>
    <path d="M14.967 15.8367H14.5538V15.4235C14.5538 15.0287 14.2337 14.7087 13.8389 14.7087C13.4441 14.7087 13.1241 15.0287 13.1241 15.4235V15.8367H12.7109C12.3161 15.8367 11.9961 16.1567 11.9961 16.5515C11.9961 16.9463 12.3161 17.2664 12.7109 17.2664H13.1241V17.6795C13.1241 18.0743 13.4441 18.3944 13.8389 18.3944C14.2337 18.3944 14.5538 18.0743 14.5538 17.6795V17.2664H14.967C15.3618 17.2664 15.6818 16.9463 15.6818 16.5515C15.6818 16.1567 15.3617 15.8367 14.967 15.8367Z" fill="#B3E59F"/>
    <path d="M14.967 15.8367H14.5538V15.4235C14.5538 15.0287 14.2337 14.7087 13.8389 14.7087C13.4441 14.7087 13.1241 15.0287 13.1241 15.4235V15.8367H12.7109C12.3161 15.8367 11.9961 16.1567 11.9961 16.5515C11.9961 16.9463 12.3161 17.2664 12.7109 17.2664H13.1241V17.6795C13.1241 18.0743 13.4441 18.3944 13.8389 18.3944C14.2337 18.3944 14.5538 18.0743 14.5538 17.6795V17.2664H14.967C15.3618 17.2664 15.6818 16.9463 15.6818 16.5515C15.6818 16.1567 15.3617 15.8367 14.967 15.8367Z" fill="#DAD8DB"/>
    <path d="M25.5669 14.2485C25.2111 14.2485 24.9199 14.5396 24.9199 14.8955C24.9199 15.2513 25.2111 15.5425 25.5669 15.5425C25.9228 15.5425 26.2139 15.2513 26.2139 14.8955C26.2139 14.5396 25.9228 14.2485 25.5669 14.2485Z" fill="#C4DBF9"/>
    <path d="M25.5669 14.2485C25.2111 14.2485 24.9199 14.5396 24.9199 14.8955C24.9199 15.2513 25.2111 15.5425 25.5669 15.5425C25.9228 15.5425 26.2139 15.2513 26.2139 14.8955C26.2139 14.5396 25.9228 14.2485 25.5669 14.2485Z" fill="#B3E59F"/>
    <path d="M25.5669 17.5605C25.2111 17.5605 24.9199 17.8516 24.9199 18.2075C24.9199 18.5633 25.2111 18.8545 25.5669 18.8545C25.9228 18.8545 26.2139 18.5633 26.2139 18.2075C26.2139 17.8516 25.9228 17.5605 25.5669 17.5605Z" fill="#BED8FB"/>
    <path d="M27.8682 16.5515C27.8682 16.1957 27.5771 15.9045 27.2212 15.9045C26.8654 15.9045 26.5742 16.1957 26.5742 16.5515C26.5742 16.9074 26.8654 17.1985 27.2212 17.1985C27.5771 17.1985 27.8682 16.9073 27.8682 16.5515Z" fill="#EDC963"/>
    <path d="M24.5576 16.5515C24.5576 16.1957 24.2665 15.9045 23.9107 15.9045C23.5548 15.9045 23.2637 16.1957 23.2637 16.5515C23.2637 16.9074 23.5548 17.1985 23.9107 17.1985C24.2665 17.1985 24.5576 16.9073 24.5576 16.5515Z" fill="#DF667C"/>
    <path d="M17.5018 14.9103H21.6705C22.0944 14.9103 22.5434 14.2126 22.5434 13.817H16.6289C16.6594 14.2126 17.0778 14.9103 17.5018 14.9103Z" fill="#A6AEC4"/>
    <path d="M15.9679 20.4389C15.528 20.4389 15.1511 20.1699 14.9924 19.7875C14.9407 19.912 14.9121 20.0485 14.9121 20.1918C14.9121 20.7749 15.3848 21.2476 15.9679 21.2476C16.551 21.2476 17.0237 20.7749 17.0237 20.1918C17.0237 20.0485 16.995 19.912 16.9434 19.7875C16.7846 20.1699 16.4077 20.4389 15.9679 20.4389Z" fill="#C8C5C9"/>
    <path d="M22.2305 19.7875C22.2305 20.1884 22.7661 20.8433 23.2059 20.8433C23.6458 20.8433 24.1814 20.1853 24.1814 19.7875C24.0226 19.4051 23.6458 19.136 23.2059 19.136C22.7661 19.136 22.3891 19.4051 22.2305 19.7875Z" fill="#DAD8DB"/>
    <path d="M23.2062 20.4389C22.7664 20.4389 22.3894 20.1699 22.2307 19.7875C22.179 19.912 22.1504 20.0485 22.1504 20.1918C22.1504 20.7749 22.6231 21.2476 23.2062 21.2476C23.7893 21.2476 24.262 20.7749 24.262 20.1918C24.262 20.0485 24.2333 19.912 24.1817 19.7875C24.0229 20.1699 23.646 20.4389 23.2062 20.4389Z" fill="#C8C5C9"/>
    <path d="M21.6726 14.506H17.5039C17.0799 14.506 16.7255 14.212 16.631 13.817H16.6055V14.4162C16.6055 14.9124 17.0077 15.3146 17.5039 15.3146H21.6726C22.1688 15.3146 22.571 14.9124 22.571 14.4162V13.817H22.5455C22.451 14.212 22.0965 14.506 21.6726 14.506Z" fill="#959DB0"/>
    </g>
    <path d="M0.0898438 -0.586263H-0.530294V0.0338745V14.9172V16.4143L0.528347 15.3557L15.4117 0.472378L16.4703 -0.586263H14.9732H0.0898438Z" fill="#57576A" stroke="#20202E" stroke-width="1.24028"/>
    <path d="M41.0195 41.5831L41.6397 41.5831L41.6397 40.963L41.6397 26.0797L41.6397 24.5825L40.581 25.6412L25.6977 40.5245L24.6391 41.5831L26.1362 41.5831L41.0195 41.5831Z" fill="#57576A" stroke="#20202E" stroke-width="1.24028"/>
    </g>
    <defs>
    <linearGradient id="paint0_linear_62_3042" x1="30.3753" y1="12.0823" x2="9.6517" y2="13.0683" gradientUnits="userSpaceOnUse">
    <stop stop-color="#FC61FF"/>
    <stop offset="1" stop-color="#ED82FF"/>
    </linearGradient>
    <clipPath id="clip0_62_3042">
    <rect width="38.9925" height="38.9925" fill="white" transform="translate(0.0898438 0.0338745)"/>
    </clipPath>
    <clipPath id="clip1_62_3042">
    <rect width="22.2814" height="22.2814" fill="white" transform="translate(8.44531 8.38959)"/>
    </clipPath>
    </defs>
</svg>
