<svg xmlns="http://www.w3.org/2000/svg" width="112" height="28" fill="none" viewBox="0 0 112 28"><path fill="#fff" d="M12.784 19.996L7.242 12.89V27H2.856V3.88H5.644L13.464 14.556L20.57 3.88H23.256V27H18.802V13.672L14.484 19.758L12.784 19.996Z"/><path fill="#fff" d="M28.1048 10.7301C28.1048 10.8415 28.1512 10.9343 28.2441 11.0086C28.3369 11.0829 28.4437 11.12 28.5644 11.12C28.7129 11.12 28.8615 11.0875 29.01 11.0225C29.1586 10.9575 29.3071 10.8647 29.4556 10.744V10.2427H28.6758C28.5087 10.2427 28.3694 10.2891 28.258 10.3819C28.1559 10.4655 28.1048 10.5815 28.1048 10.7301ZM26.2109 6.64979C26.5637 6.49196 27.0093 6.34806 27.5478 6.21809C28.0863 6.07883 28.634 6.0092 29.191 6.0092C30.1102 6.0092 30.8065 6.26451 31.2799 6.77512C31.7534 7.28574 31.9902 7.96811 31.9902 8.82223V13H30.8622L30.4026 12.4847C30.1984 12.689 29.9291 12.8515 29.5949 12.9721C29.2607 13.0928 28.9032 13.1532 28.5226 13.1532C27.6685 13.1532 27.0325 12.9397 26.6148 12.5126C26.197 12.0855 25.9881 11.5239 25.9881 10.8276C25.9881 10.0941 26.2341 9.5603 26.7262 9.22608C27.2182 8.88258 27.8542 8.71082 28.634 8.71082H29.4417C29.4046 8.50658 29.3071 8.34875 29.1493 8.23734C28.9914 8.12593 28.7965 8.07023 28.5644 8.07023C28.3323 8.07023 28.0584 8.11201 27.7428 8.19556C27.4271 8.26984 27.1393 8.36267 26.8793 8.47408L26.2109 6.64979ZM37.8215 10.8972V8.50193C37.6915 8.38124 37.5244 8.27912 37.3202 8.19556C37.1252 8.11201 36.9442 8.07023 36.7771 8.07023C36.3964 8.07023 36.1226 8.24198 35.9554 8.58549C35.7976 8.91971 35.7187 9.25393 35.7187 9.58815C35.7187 9.98736 35.8255 10.3402 36.039 10.6465C36.2618 10.9436 36.5775 11.0922 36.986 11.0922C37.0881 11.0922 37.2227 11.0736 37.3898 11.0364C37.5569 10.9993 37.7008 10.9529 37.8215 10.8972ZM40.356 6.25986V13.0696C40.356 14.0444 40.0311 14.7825 39.3812 15.2838C38.7406 15.7945 37.8262 16.0498 36.6378 16.0498C36.35 16.0498 35.9183 15.9894 35.3427 15.8687C34.7671 15.7573 34.2611 15.5577 33.8248 15.2699L34.5907 13.4874C35.0456 13.7102 35.4216 13.8495 35.7187 13.9052C36.0251 13.9702 36.3175 14.0027 36.596 14.0027C36.8838 14.0027 37.1577 13.947 37.4177 13.8356C37.6869 13.7241 37.8215 13.5617 37.8215 13.3481V12.8607C37.6266 12.9443 37.4084 13.0139 37.167 13.0696C36.9256 13.1253 36.6517 13.1532 36.3454 13.1532C35.2591 13.1532 34.4468 12.819 33.9083 12.1505C33.3699 11.4821 33.1006 10.6465 33.1006 9.64386C33.1006 8.63191 33.3652 7.77315 33.8944 7.06757C34.4329 6.36199 35.2963 6.0092 36.4846 6.0092C36.8653 6.0092 37.2459 6.09275 37.6266 6.25986C38.0165 6.41769 38.36 6.60337 38.6571 6.8169L39.0888 6.25986H40.356ZM43.285 5.32683C42.9137 5.32683 42.5934 5.19221 42.3241 4.92298C42.0549 4.65374 41.9203 4.33345 41.9203 3.96209C41.9203 3.58145 42.0549 3.25651 42.3241 2.98728C42.5934 2.70876 42.9137 2.5695 43.285 2.5695C43.6657 2.5695 43.9906 2.70876 44.2599 2.98728C44.5384 3.25651 44.6776 3.58145 44.6776 3.96209C44.6776 4.33345 44.5384 4.65374 44.2599 4.92298C43.9906 5.19221 43.6657 5.32683 43.285 5.32683ZM42.0317 13V6.24594H44.5662V13H42.0317ZM51.108 8.4323C50.8388 8.29305 50.6067 8.20021 50.4117 8.15379C50.2168 8.09808 49.9986 8.07023 49.7572 8.07023C49.4137 8.07023 49.1073 8.20949 48.8381 8.48801C48.5689 8.76653 48.4342 9.14717 48.4342 9.62993C48.4342 10.1034 48.5689 10.4655 48.8381 10.7162C49.1073 10.9668 49.4137 11.0922 49.7572 11.0922C49.98 11.0922 50.1936 11.0689 50.3978 11.0225C50.602 10.9668 50.8388 10.8693 51.108 10.7301L51.8182 12.4708C51.4283 12.7772 51.0152 12.9675 50.5788 13.0418C50.1425 13.116 49.7851 13.1532 49.5065 13.1532C48.411 13.1532 47.5198 12.8515 46.8328 12.248C46.155 11.6353 45.8162 10.7626 45.8162 9.62993C45.8162 8.49729 46.155 7.61068 46.8328 6.97008C47.5198 6.32949 48.411 6.0092 49.5065 6.0092C49.7851 6.0092 50.1425 6.04633 50.5788 6.1206C51.0152 6.19488 51.4283 6.3852 51.8182 6.69157L51.108 8.4323ZM54.7191 10.7301C54.7191 10.8415 54.7655 10.9343 54.8583 11.0086C54.9512 11.0829 55.0579 11.12 55.1786 11.12C55.3272 11.12 55.4757 11.0875 55.6243 11.0225C55.7728 10.9575 55.9213 10.8647 56.0699 10.744V10.2427H55.29C55.1229 10.2427 54.9837 10.2891 54.8723 10.3819C54.7701 10.4655 54.7191 10.5815 54.7191 10.7301ZM52.8251 6.64979C53.1779 6.49196 53.6236 6.34806 54.162 6.21809C54.7005 6.07883 55.2483 6.0092 55.8053 6.0092C56.7244 6.0092 57.4207 6.26451 57.8942 6.77512C58.3677 7.28574 58.6044 7.96811 58.6044 8.82223V13H57.4764L57.0168 12.4847C56.8126 12.689 56.5434 12.8515 56.2091 12.9721C55.8749 13.0928 55.5175 13.1532 55.1368 13.1532C54.2827 13.1532 53.6468 12.9397 53.229 12.5126C52.8112 12.0855 52.6023 11.5239 52.6023 10.8276C52.6023 10.0941 52.8484 9.5603 53.3404 9.22608C53.8325 8.88258 54.4684 8.71082 55.2483 8.71082H56.056C56.0188 8.50658 55.9213 8.34875 55.7635 8.23734C55.6057 8.12593 55.4107 8.07023 55.1786 8.07023C54.9465 8.07023 54.6727 8.11201 54.357 8.19556C54.0413 8.26984 53.7535 8.36267 53.4936 8.47408L52.8251 6.64979ZM60.1327 13V3.3215L62.6672 3.16831V13H60.1327ZM27.6592 19.3268C27.2878 19.3268 26.9675 19.1922 26.6983 18.923C26.4291 18.6537 26.2945 18.3334 26.2945 17.9621C26.2945 17.5814 26.4291 17.2565 26.6983 16.9873C26.9675 16.7088 27.2878 16.5695 27.6592 16.5695C28.0398 16.5695 28.3648 16.7088 28.634 16.9873C28.9125 17.2565 29.0518 17.5814 29.0518 17.9621C29.0518 18.3334 28.9125 18.6537 28.634 18.923C28.3648 19.1922 28.0398 19.3268 27.6592 19.3268ZM26.4059 27V20.2459H28.9404V27H26.4059ZM33.0312 22.307C33.0312 22.372 33.0637 22.4277 33.1287 22.4741C33.203 22.5112 33.3608 22.5716 33.6022 22.6551C34.1592 22.8501 34.693 23.1193 35.2037 23.4628C35.7143 23.797 35.9696 24.2752 35.9696 24.8972C35.9696 25.6028 35.7328 26.1552 35.2594 26.5544C34.7952 26.9536 34.0942 27.1532 33.1566 27.1532C32.878 27.1532 32.4231 27.0743 31.7918 26.9164C31.1698 26.7586 30.6638 26.5265 30.2739 26.2201L30.9841 24.4794C31.2533 24.6187 31.5783 24.7579 31.9589 24.8972C32.3489 25.0272 32.6645 25.0922 32.9059 25.0922C33.0544 25.0922 33.1658 25.0643 33.2401 25.0086C33.3144 24.9529 33.3515 24.9018 33.3515 24.8554C33.3515 24.7904 33.3144 24.7347 33.2401 24.6883C33.1658 24.6326 33.0266 24.5723 32.8223 24.5073C32.2653 24.3123 31.7222 24.0477 31.193 23.7135C30.6731 23.37 30.4132 22.8872 30.4132 22.2652C30.4132 21.5596 30.6777 21.0072 31.2069 20.608C31.7361 20.2088 32.4695 20.0092 33.4072 20.0092C33.6857 20.0092 34.0803 20.0788 34.5909 20.2181C35.1108 20.3481 35.5657 20.5662 35.9557 20.8726L35.2454 22.6133C34.9762 22.4741 34.693 22.3487 34.396 22.2373C34.0989 22.1259 33.8296 22.0702 33.5883 22.0702C33.384 22.0702 33.2401 22.0981 33.1566 22.1538C33.073 22.2095 33.0312 22.2606 33.0312 22.307ZM38.8892 24.7301C38.8892 24.8415 38.9357 24.9343 39.0285 25.0086C39.1213 25.0829 39.2281 25.12 39.3488 25.12C39.4973 25.12 39.6459 25.0875 39.7944 25.0225C39.943 24.9575 40.0915 24.8647 40.2401 24.744V24.2427H39.4602C39.2931 24.2427 39.1538 24.2891 39.0424 24.3819C38.9403 24.4655 38.8892 24.5815 38.8892 24.7301ZM36.9953 20.6498C37.3481 20.492 37.7937 20.3481 38.3322 20.2181C38.8707 20.0788 39.4184 20.0092 39.9755 20.0092C40.8946 20.0092 41.5909 20.2645 42.0643 20.7751C42.5378 21.2857 42.7746 21.9681 42.7746 22.8222V27H41.6466L41.187 26.4847C40.9828 26.689 40.7135 26.8515 40.3793 26.9721C40.0451 27.0928 39.6877 27.1532 39.307 27.1532C38.4529 27.1532 37.8169 26.9397 37.3992 26.5126C36.9814 26.0855 36.7725 25.5239 36.7725 24.8276C36.7725 24.0941 37.0185 23.5603 37.5106 23.2261C38.0026 22.8826 38.6386 22.7108 39.4184 22.7108H40.2261C40.189 22.5066 40.0915 22.3487 39.9337 22.2373C39.7759 22.1259 39.5809 22.0702 39.3488 22.0702C39.1167 22.0702 38.8428 22.112 38.5272 22.1956C38.2115 22.2698 37.9237 22.3627 37.6638 22.4741L36.9953 20.6498ZM46.5031 23.5882C46.5031 23.9874 46.6099 24.3402 46.8234 24.6465C47.0462 24.9436 47.3619 25.0922 47.7704 25.0922C47.8725 25.0922 48.0071 25.0736 48.1742 25.0364C48.3413 24.9993 48.4852 24.9529 48.6059 24.8972V22.5019C48.476 22.3812 48.3088 22.2791 48.1046 22.1956C47.9096 22.112 47.7286 22.0702 47.5615 22.0702C47.1808 22.0702 46.907 22.242 46.7399 22.5855C46.582 22.9197 46.5031 23.2539 46.5031 23.5882ZM51.1404 17.1683V27H49.8593L49.4136 26.3037C49.2094 26.4894 48.9216 26.6797 48.5502 26.8747C48.1882 27.0603 47.7147 27.1532 47.1298 27.1532C46.0436 27.1532 45.2312 26.819 44.6927 26.1505C44.1543 25.4821 43.885 24.6465 43.885 23.6439C43.885 22.6319 44.1496 21.7731 44.6788 21.0676C45.2173 20.362 46.0807 20.0092 47.269 20.0092C47.4919 20.0092 47.7147 20.0417 47.9375 20.1067C48.1696 20.1624 48.3924 20.2367 48.6059 20.3295V17.3215L51.1404 17.1683ZM54.71 27L52.1198 20.4966L54.5986 20.2459L55.9494 24.0616L57.2446 20.2459H59.7651L57.1053 27H54.71ZM60.3269 23.6299C60.3269 22.4973 60.675 21.6107 61.3713 20.9701C62.0769 20.3295 62.9403 20.0092 63.9615 20.0092C65.0385 20.0092 65.8462 20.3573 66.3846 21.0536C66.9231 21.7499 67.1923 22.5716 67.1923 23.5185V24.3959H63.0842C63.1956 24.6558 63.3627 24.8415 63.5855 24.9529C63.8176 25.0643 64.0915 25.12 64.4071 25.12C64.7042 25.12 65.006 25.0922 65.3123 25.0364C65.628 24.9807 65.9158 24.8879 66.1757 24.7579L66.886 26.4708C66.496 26.7586 66.0133 26.9443 65.4377 27.0279C64.8621 27.1114 64.435 27.1532 64.1565 27.1532C63.061 27.1532 62.1465 26.8747 61.4131 26.3176C60.6889 25.7513 60.3269 24.8554 60.3269 23.6299ZM64.7692 22.864C64.7599 22.7155 64.6903 22.5437 64.5603 22.3487C64.4304 22.1445 64.2075 22.0424 63.8919 22.0424C63.6598 22.0424 63.4695 22.1167 63.3209 22.2652C63.1817 22.4045 63.0795 22.6041 63.0146 22.864H64.7692ZM70.2384 20.8448C70.5262 20.6776 70.9068 20.4966 71.3803 20.3016C71.8538 20.1067 72.3737 20.0092 72.94 20.0092C73.8963 20.0092 74.5786 20.2784 74.9871 20.8169C75.3956 21.3461 75.5999 22.0145 75.5999 22.8222V27H73.0654V22.8779C73.0654 22.618 72.9864 22.4184 72.8286 22.2791C72.6708 22.1399 72.4758 22.0702 72.2437 22.0702C72.0859 22.0702 71.8863 22.112 71.6449 22.1956C71.4035 22.2791 71.1807 22.3673 70.9765 22.4602V27H68.442V20.2599H69.7092L70.2384 20.8448ZM82.6467 26.5544C82.4796 26.7029 82.2057 26.8422 81.8251 26.9721C81.4537 27.0928 81.1056 27.1532 80.7806 27.1532C79.9172 27.1532 79.1513 26.9304 78.4829 26.4847C77.8144 26.0391 77.4802 25.366 77.4802 24.4655V22.5159H76.4358V20.5245H77.4802V18.7002L80.0147 18.352V20.5245H81.644L81.8808 22.5159H80.0147V24.187C80.0147 24.4655 80.0936 24.6883 80.2514 24.8554C80.4186 25.0132 80.6507 25.0922 80.9477 25.0922C81.0684 25.0922 81.2216 25.0736 81.4073 25.0364C81.593 24.99 81.7647 24.9204 81.9226 24.8276L82.6467 26.5544ZM88.702 26.429C88.4142 26.5869 88.0428 26.7633 87.5879 26.9582C87.1423 27.1532 86.6363 27.2507 86.07 27.2507C85.1137 27.2507 84.4406 26.9861 84.0507 26.4569C83.6701 25.9184 83.4798 25.2453 83.4798 24.4376V20.2599H86.0143V24.3819C86.0143 24.6419 86.0793 24.8415 86.2092 24.9807C86.3485 25.12 86.5342 25.1896 86.7663 25.1896C86.9148 25.1896 87.1005 25.1479 87.3233 25.0643C87.5461 24.9807 87.7596 24.8925 87.9639 24.7997V20.2599H90.4984V27H89.2312L88.702 26.429ZM92.1731 27V20.2599H93.4404L94.0531 20.9422C94.3316 20.7566 94.6612 20.5941 95.0418 20.4548C95.4225 20.3156 95.8031 20.2459 96.1838 20.2459L96.699 22.2791C96.3648 22.2791 96.0213 22.3255 95.6685 22.4184C95.3157 22.5112 94.9954 22.669 94.7076 22.8919V27H92.1731ZM97.2495 23.6299C97.2495 22.4973 97.5977 21.6107 98.294 20.9701C98.9996 20.3295 99.863 20.0092 100.884 20.0092C101.961 20.0092 102.769 20.3573 103.307 21.0536C103.846 21.7499 104.115 22.5716 104.115 23.5185V24.3959H100.007C100.118 24.6558 100.285 24.8415 100.508 24.9529C100.74 25.0643 101.014 25.12 101.33 25.12C101.627 25.12 101.929 25.0922 102.235 25.0364C102.551 24.9807 102.838 24.8879 103.098 24.7579L103.809 26.4708C103.419 26.7586 102.936 26.9443 102.36 27.0279C101.785 27.1114 101.358 27.1532 101.079 27.1532C99.9837 27.1532 99.0692 26.8747 98.3358 26.3176C97.6116 25.7513 97.2495 24.8554 97.2495 23.6299ZM101.692 22.864C101.683 22.7155 101.613 22.5437 101.483 22.3487C101.353 22.1445 101.13 22.0424 100.815 22.0424C100.582 22.0424 100.392 22.1167 100.244 22.2652C100.104 22.4045 100.002 22.6041 99.9372 22.864H101.692ZM107.788 22.307C107.788 22.372 107.82 22.4277 107.885 22.4741C107.959 22.5112 108.117 22.5716 108.359 22.6551C108.916 22.8501 109.45 23.1193 109.96 23.4628C110.471 23.797 110.726 24.2752 110.726 24.8972C110.726 25.6028 110.489 26.1552 110.016 26.5544C109.552 26.9536 108.851 27.1532 107.913 27.1532C107.635 27.1532 107.18 27.0743 106.548 26.9164C105.926 26.7586 105.42 26.5265 105.03 26.2201L105.741 24.4794C106.01 24.6187 106.335 24.7579 106.715 24.8972C107.105 25.0272 107.421 25.0922 107.662 25.0922C107.811 25.0922 107.922 25.0643 107.997 25.0086C108.071 24.9529 108.108 24.9018 108.108 24.8554C108.108 24.7904 108.071 24.7347 107.997 24.6883C107.922 24.6326 107.783 24.5723 107.579 24.5073C107.022 24.3123 106.479 24.0477 105.95 23.7135C105.43 23.37 105.17 22.8872 105.17 22.2652C105.17 21.5596 105.434 21.0072 105.963 20.608C106.493 20.2088 107.226 20.0092 108.164 20.0092C108.442 20.0092 108.837 20.0788 109.347 20.2181C109.867 20.3481 110.322 20.5662 110.712 20.8726L110.002 22.6133C109.733 22.4741 109.45 22.3487 109.152 22.2373C108.855 22.1259 108.586 22.0702 108.345 22.0702C108.141 22.0702 107.997 22.0981 107.913 22.1538C107.83 22.2095 107.788 22.2606 107.788 22.307Z"/></svg>