<svg width="132" height="29" viewBox="0 0 132 29" fill="none" xmlns="http://www.w3.org/2000/svg">
    <g clip-path="url(#clip0_62_2965)">
        <path d="M131.141 13.5472V11.2541H128.294V7.68911L128.198 7.71863L125.523 8.537L125.47 8.55302V11.2542H121.249V9.74941C121.249 9.04873 121.405 8.51253 121.714 8.15493C122.021 7.80163 122.459 7.62201 123.019 7.62201C123.421 7.62201 123.837 7.71674 124.256 7.90354L124.361 7.95047V5.53547L124.312 5.51731C123.921 5.37679 123.389 5.30603 122.73 5.30603C121.9 5.30603 121.145 5.48678 120.487 5.84501C119.828 6.20374 119.31 6.71585 118.947 7.36696C118.586 8.01732 118.402 8.76846 118.402 9.59969V11.2541H116.419V13.5472H118.402V23.2079H121.249V13.5472H125.47V19.6864C125.47 22.2148 126.663 23.4961 129.015 23.4961C129.402 23.4961 129.808 23.4508 130.224 23.3621C130.647 23.271 130.934 23.1801 131.104 23.083L131.141 23.0608V20.7464L131.026 20.823C130.871 20.9259 130.679 21.0101 130.453 21.0726C130.227 21.1363 130.038 21.1682 129.891 21.1682C129.34 21.1682 128.932 21.0198 128.679 20.7268C128.424 20.4311 128.294 19.9141 128.294 19.1908V13.5472H131.141ZM110.063 21.1686C109.03 21.1686 108.215 20.826 107.641 20.1512C107.063 19.473 106.771 18.506 106.771 17.2775C106.771 16.0099 107.063 15.0179 107.641 14.3276C108.216 13.642 109.022 13.294 110.039 13.294C111.026 13.294 111.812 13.6263 112.375 14.2824C112.941 14.9418 113.228 15.9259 113.228 17.2082C113.228 18.5063 112.958 19.5034 112.425 20.1704C111.897 20.8323 111.102 21.1686 110.063 21.1686ZM110.189 10.9661C108.218 10.9661 106.652 11.5437 105.536 12.6828C104.421 13.8221 103.855 15.3987 103.855 17.3692C103.855 19.2408 104.407 20.7462 105.496 21.8429C106.585 22.9401 108.067 23.4958 109.901 23.4958C111.812 23.4958 113.346 22.9102 114.462 21.7553C115.578 20.6016 116.143 19.0399 116.143 17.1155C116.143 15.2146 115.612 13.698 114.566 12.6085C113.519 11.5186 112.046 10.9661 110.189 10.9661ZM99.2656 10.9661C97.9248 10.9661 96.8157 11.3091 95.9684 11.9853C95.116 12.6655 94.6836 13.5577 94.6836 14.6373C94.6836 15.1985 94.7769 15.697 94.9606 16.1198C95.1454 16.544 95.4313 16.9175 95.8112 17.2309C96.1883 17.5418 96.7702 17.8675 97.5414 18.1989C98.1898 18.4657 98.6733 18.6913 98.9804 18.8692C99.2806 19.0435 99.4936 19.2187 99.614 19.3893C99.7309 19.5563 99.7902 19.7849 99.7902 20.0669C99.7902 20.8701 99.1888 21.2608 97.9513 21.2608C97.4922 21.2608 96.9687 21.165 96.3951 20.976C95.8256 20.7899 95.2882 20.5174 94.8015 20.168L94.6833 20.0832V22.8238L94.7267 22.844C95.1295 23.0299 95.6373 23.1867 96.2358 23.31C96.8332 23.4335 97.3759 23.4963 97.8474 23.4963C99.3024 23.4963 100.474 23.1517 101.329 22.4715C102.189 21.7866 102.625 20.8733 102.625 19.7564C102.625 18.9506 102.391 18.2597 101.928 17.7024C101.469 17.1497 100.671 16.6422 99.5586 16.1937C98.6724 15.838 98.1046 15.5427 97.8704 15.316C97.6446 15.0971 97.53 14.7874 97.53 14.3952C97.53 14.0476 97.6715 13.7691 97.962 13.5436C98.2547 13.3169 98.6623 13.2016 99.1734 13.2016C99.6477 13.2016 100.133 13.2766 100.615 13.4234C101.098 13.5702 101.521 13.7668 101.875 14.0074L101.991 14.0868V11.4872L101.946 11.468C101.62 11.3281 101.19 11.2084 100.668 11.1113C100.148 11.0148 99.6759 10.9661 99.2656 10.9661ZM87.2629 21.1686C86.23 21.1686 85.4151 20.826 84.8412 20.1512C84.2635 19.473 83.9714 18.5063 83.9714 17.2775C83.9714 16.0099 84.2639 15.0179 84.8418 14.3276C85.4158 13.642 86.2224 13.294 87.2401 13.294C88.2267 13.294 89.0124 13.6263 89.5753 14.2824C90.141 14.9418 90.428 15.9259 90.428 17.2082C90.428 18.5063 90.158 19.5034 89.6257 20.1704C89.097 20.8323 88.3025 21.1686 87.2629 21.1686ZM87.3898 10.9661C85.4182 10.9661 83.8524 11.5437 82.7368 12.6828C81.6212 13.8221 81.0552 15.3987 81.0552 17.3692C81.0552 19.2415 81.6077 20.7462 82.6968 21.8429C83.7858 22.9401 85.2678 23.4958 87.1014 23.4958C89.0119 23.4958 90.5467 22.9102 91.6625 21.7553C92.7779 20.6016 93.3434 19.0399 93.3434 17.1155C93.3434 15.2146 92.8129 13.698 91.7661 12.6085C90.7188 11.5186 89.2462 10.9661 87.3898 10.9661ZM76.7343 13.3242V11.2541H73.9225V23.2076H76.7343V17.0929C76.7343 16.0532 76.9701 15.199 77.4353 14.5538C77.8945 13.9163 78.5065 13.5933 79.2538 13.5933C79.5071 13.5933 79.7914 13.635 80.0993 13.7176C80.404 13.7998 80.6247 13.8889 80.7549 13.9828L80.8731 14.0684V11.2337L80.8276 11.2141C80.5657 11.1029 80.1952 11.0467 79.7265 11.0467C79.0199 11.0467 78.3876 11.2738 77.846 11.7208C77.3706 12.1137 77.027 12.6524 76.7642 13.3242H76.7343ZM68.8871 10.9661C67.5971 10.9661 66.4465 11.2427 65.4678 11.788C64.4871 12.3346 63.7286 13.1148 63.2126 14.107C62.6988 15.0968 62.438 16.253 62.438 17.5423C62.438 18.6718 62.6909 19.7082 63.1908 20.6217C63.6909 21.5367 64.3988 22.2525 65.2948 22.749C66.1896 23.2448 67.2238 23.4962 68.3689 23.4962C69.7052 23.4962 70.8461 23.229 71.7608 22.7022L71.7978 22.681V20.1049L71.6796 20.1912C71.2652 20.493 70.8022 20.734 70.3039 20.9075C69.807 21.0809 69.3539 21.1686 68.9566 21.1686C67.8532 21.1686 66.9675 20.8234 66.3246 20.1428C65.6803 19.4612 65.3536 18.5042 65.3536 17.3C65.3536 16.0882 65.6943 15.1067 66.3657 14.3824C67.0351 13.6603 67.9225 13.294 69.003 13.294C69.9272 13.294 70.8278 13.6069 71.6798 14.225L71.7978 14.3106V11.5963L71.7597 11.5749C71.439 11.3954 71.0017 11.2472 70.4588 11.1348C69.9182 11.0226 69.3895 10.9661 68.8871 10.9661ZM60.5014 11.2542H57.6896V23.2076H60.5014V11.2542ZM59.1243 6.16199C58.6615 6.16199 58.2579 6.31953 57.9262 6.63172C57.5932 6.94479 57.4243 7.33896 57.4243 7.80415C57.4243 8.26202 57.5912 8.64901 57.9211 8.95375C58.2488 9.25761 58.6537 9.41162 59.1244 9.41162C59.595 9.41162 60.0014 9.25761 60.333 8.95426C60.6668 8.64901 60.8361 8.26215 60.8361 7.80415C60.8361 7.35523 60.6713 6.96509 60.3468 6.64433C60.0225 6.3242 59.611 6.16199 59.1243 6.16199ZM52.1086 10.3723V23.2076H54.9782V6.52791H51.0066L45.9584 18.9171L41.0594 6.52791H36.926V23.2075H39.6227V10.371H39.7153L44.8885 23.2076H46.9235L52.016 10.3723H52.1086Z" fill="white"/>
        <path d="M13.9759 14.1817H0.748291V0.954102H13.9759V14.1817Z" fill="#F1511B"/>
        <path d="M28.5792 14.1817H15.3518V0.954102H28.5792V14.1817Z" fill="#80CC28"/>
        <path d="M13.9755 28.7917H0.748291V15.5642H13.9755V28.7917Z" fill="#00ADEF"/>
        <path d="M28.5792 28.7917H15.3518V15.5642H28.5792V28.7917Z" fill="#FBBC09"/>
    </g>
    <defs>
        <clipPath id="clip0_62_2965">
            <rect width="130.392" height="27.8518" fill="white" transform="translate(0.748291 0.947021)"/>
        </clipPath>
    </defs>
</svg>
