<svg xmlns="http://www.w3.org/2000/svg" width="184" height="29" fill="none" viewBox="0 0 184 29"><g clip-path="url(#clip0_62_2987)"><path fill="#DE0029" fill-rule="evenodd" d="M19.8584 6.80202L19.8343 28.6904L13.9319 26.7831V1.05542L21.466 3.03453C26.2887 4.32234 29.24 6.82568 29.192 11.2129C29.144 16.3157 26.7686 18.366 22.1378 17.0308V6.96858C22.1378 5.75254 19.8584 5.68134 19.8584 6.80202Z" clip-rule="evenodd"/><path fill="#F3C202" fill-rule="evenodd" d="M11.2197 22.5384L8.43632 23.4685C6.63653 24.0886 5.10109 22.6342 6.75669 22.0378L8.10026 21.5612L3.03741 19.9634C1.4777 20.4882 0.0139662 21.6088 0.11021 23.1825C0.206198 24.7799 3.87718 25.1616 6.7087 25.6147C9.34794 26.0436 11.7474 25.8052 13.9311 25.0422V23.3969L11.2197 22.5384ZM19.8817 28.6904L25.0404 26.9019L19.8337 25.2569V28.5709L19.8817 28.6904Z" clip-rule="evenodd"/><path fill="#326DB3" fill-rule="evenodd" d="M33.6067 23.8979L33.7026 23.8739C35.9581 23.0873 36.9179 21.99 36.6781 20.9651C36.2941 19.2484 33.5348 18.3183 29.2877 18.0083C26.2404 17.7939 23.2412 18.4613 20.3139 19.4626L19.834 19.6297L25.0887 21.2511L28.16 20.2256C31.3752 19.6297 32.6712 20.6787 29.5758 21.6564L28.04 22.1807L33.6067 23.8979ZM13.9315 16.3157L11.6038 17.1022L13.9315 17.8176V16.3157Z" clip-rule="evenodd"/><path fill="#00AA9E" fill-rule="evenodd" d="M25.0402 26.9019L33.6062 23.8979L28.0395 22.1807L19.8335 24.9704V25.2569L25.0402 26.9019ZM13.9311 21.6323L11.2196 22.5383L13.9311 23.3967V21.6323ZM19.8335 23.0395V19.6297L25.0883 21.251L19.8335 23.0395ZM8.10015 21.5612L13.9309 19.4868V17.8177L11.6033 17.1023L3.15726 19.9397C3.13324 19.9397 3.0853 19.9632 3.03735 19.9632L8.10015 21.5612Z" clip-rule="evenodd"/></g><g clip-path="url(#clip1_62_2987)"><path fill="#fff" d="M53.6287 3.76614V21.8375H56.4658V5.49816H59.0918C59.0918 5.49816 60.9998 5.49816 61.653 6.34658C62.208 7.0673 62.3094 8.37472 62.3094 9.25753C62.3094 10.2024 62.2494 11.6624 61.9305 12.197C61.4467 13.0137 60.6523 13.1774 59.9259 13.1774H58.1925V14.7813H60.6853C60.6853 14.7813 62.9344 14.8746 63.9017 13.897C65.0877 12.6983 65.3891 11.0868 65.3891 8.9294C65.3891 6.96926 64.6738 4.99172 63.2119 4.32003C62.0017 3.76654 59.8198 3.76654 59.8198 3.76654L53.6287 3.76614ZM67.6187 21.8379H70.4554V3.76654H67.6187V21.8379ZM85.5484 7.98135L90.7388 21.5082L87.7589 28.7652H90.1138L98.6948 7.98135H96.0656L92.3275 18.1114L88.8499 7.98135H85.5484ZM100.831 21.7304V20.0225C100.831 20.0225 103.831 20.1395 104.456 20.1395C105.84 20.1395 106.532 19.8462 107.052 19.2911C107.36 18.9582 107.637 17.4839 107.637 16.9585C107.637 16.4351 107.536 15.3032 107.33 14.8395C107.117 14.3852 106.634 13.961 105.909 13.8997C105.392 13.8554 104.593 13.7515 103.659 13.7088C102.349 13.6471 101.483 12.9675 101.066 12.4788C100.652 11.9898 100.098 11.2533 100.098 8.99977C100.098 6.74351 100.685 5.47879 101.273 4.8921C101.862 4.30224 102.723 4.04368 103.384 3.92705C104.145 3.79777 105.388 3.78986 105.388 3.78986L109.359 3.90491V5.61282C109.359 5.61282 106.464 5.49777 105.841 5.49777C104.456 5.49777 104.041 5.7927 103.522 6.34619C103.216 6.67551 102.977 7.58719 102.977 8.10944C102.977 8.63407 103.038 9.694 103.246 10.1526C103.452 10.6073 103.938 11.0326 104.664 11.0975C105.179 11.137 105.98 11.241 106.913 11.2833C108.229 11.345 109.093 12.023 109.505 12.5136C109.923 13.0039 110.477 14.0369 110.477 16.2884C110.477 18.5451 109.886 20.1569 109.301 20.7452C108.711 21.3315 107.851 21.5936 107.19 21.7071C106.427 21.8375 105.184 21.8474 105.184 21.8474L100.831 21.7304ZM116.31 5.49737H113.475V18.7645C113.475 18.7645 113.543 19.9754 113.613 20.4012C113.682 20.827 114.306 21.8379 115.931 21.8379L118.87 21.781V20.0794C118.87 20.0794 118.074 20.1363 117.593 20.1363C117.106 20.1363 116.516 20.1047 116.416 19.2863C116.31 18.4696 116.31 17.4934 116.31 17.4934V9.68135H119.514V7.98135H116.31V5.49777L116.31 5.49737ZM143.688 21.8379H146.524V7.98214H143.688V21.8379ZM143.688 6.28135H146.524V3.76575H143.688V6.28135ZM155.487 7.86314C157.417 7.86314 158.914 8.29209 159.718 8.93849C160.53 9.58686 161.527 10.954 161.527 14.9102C161.527 18.8669 160.53 20.2324 159.718 20.8824C158.913 21.5288 157.417 21.9609 155.487 21.9609C153.552 21.9609 152.061 21.5288 151.251 20.8824C150.441 20.2324 149.448 18.8669 149.448 14.9102C149.448 10.954 150.441 9.58646 151.251 8.93849C152.061 8.29209 153.552 7.86314 155.487 7.86314ZM153.543 10.5199C153.152 10.9983 152.677 12.0024 152.677 14.9102C152.677 17.8168 153.152 18.8226 153.542 19.2986C153.931 19.7722 154.647 20.0921 155.575 20.0921C156.504 20.0921 157.218 19.7718 157.612 19.299C158 18.8226 158.476 17.8164 158.476 14.9106C158.476 12.0024 158 10.9979 157.612 10.5203C157.218 10.0459 156.504 9.72839 155.575 9.72839C154.648 9.72839 153.931 10.0455 153.542 10.5203L153.543 10.5199ZM167.403 9.92726L170.184 9.81063C170.912 9.81063 171.768 10.0059 172.184 10.5298C172.571 11.0232 172.815 11.6114 172.815 12.5591V21.8221H175.655V12.3258C175.655 10.5298 175.099 9.48565 174.264 8.82977C173.075 7.89161 170.944 7.98135 170.944 7.98135L164.589 8.09481V21.8221H167.403V9.92726ZM138.039 5.49737H135.202V18.7645C135.202 18.7645 135.269 19.9754 135.337 20.4012C135.408 20.827 136.027 21.8379 137.659 21.8379L140.597 21.781V20.0794C140.597 20.0794 139.799 20.1363 139.317 20.1363C138.836 20.1363 138.244 20.1047 138.141 19.2863C138.039 18.4696 138.039 17.4934 138.039 17.4934V9.68135H141.235V7.98135H138.039L138.039 5.49737ZM81.2207 12.5591C81.2207 11.6114 80.9782 11.0232 80.5878 10.5298C80.1723 10.0059 79.3195 9.81023 78.5895 9.81023L74.8483 9.92726V8.09481L79.3509 7.98135C79.3509 7.98135 81.4819 7.89121 82.6731 8.82977C83.504 9.48605 84.0559 10.5298 84.0559 12.3258V21.6897L78.6197 21.8063C78.6197 21.8063 76.1587 21.815 74.9183 21.3161C73.71 20.827 73.0504 19.4852 73.0504 17.6227C73.0504 15.8251 73.6039 14.7809 74.4348 14.1251C75.6256 13.1853 77.7554 13.2782 77.7554 13.2782H79.492V14.8743H78.518C77.7888 14.8743 77.039 15.0083 76.6215 15.5317C76.2331 16.0204 76.0251 16.445 76.0251 17.3926C76.0251 18.6368 76.2677 19.1915 76.8561 19.6145C77.3765 19.9912 78.3072 20.0731 79.3461 20.0731L81.2207 19.9596V12.5591ZM129.054 12.5591C129.054 11.6114 128.816 11.0232 128.426 10.5298C128.006 10.0059 127.152 9.81023 126.428 9.81023L122.688 9.92726V8.09481L127.187 7.98135C127.187 7.98135 129.317 7.89121 130.507 8.82977C131.338 9.48605 131.893 10.5298 131.893 12.3258V21.6897L126.456 21.8063C126.456 21.8063 123.992 21.815 122.755 21.3161C121.545 20.827 120.884 19.4852 120.884 17.6227C120.884 15.8251 121.442 14.7809 122.268 14.1251C123.458 13.1853 125.592 13.2782 125.592 13.2782H127.327V14.8743H126.352C125.627 14.8743 124.872 15.0083 124.46 15.5317C124.07 16.0204 123.86 16.445 123.86 17.3926C123.86 18.6368 124.104 19.1915 124.691 19.6145C125.21 19.9912 126.146 20.0731 127.184 20.0731L129.054 19.9596L129.054 12.5591ZM180.796 21.9514C181.16 21.9522 181.521 21.8816 181.857 21.7435C182.193 21.6055 182.499 21.4028 182.757 21.147C183.014 20.8912 183.218 20.5873 183.357 20.2529C183.496 19.9185 183.568 19.5601 183.567 19.1982C183.568 18.8362 183.497 18.4776 183.357 18.1431C183.218 17.8086 183.014 17.5047 182.756 17.2491C182.499 16.993 182.194 16.7901 181.857 16.652C181.521 16.5139 181.16 16.4434 180.796 16.4446C179.275 16.4446 178.027 17.6796 178.027 19.1982C178.027 19.9327 178.313 20.6254 178.841 21.1472C179.098 21.4025 179.403 21.6049 179.738 21.7429C180.074 21.8809 180.433 21.9517 180.796 21.9514ZM178.492 19.1982C178.492 18.5862 178.735 18.0106 179.168 17.5784C179.381 17.3651 179.635 17.1957 179.914 17.0802C180.194 16.9647 180.494 16.9052 180.796 16.9052C181.412 16.9052 181.992 17.1463 182.426 17.5784C182.641 17.7908 182.811 18.0433 182.927 18.3212C183.043 18.5992 183.102 18.8972 183.102 19.1982C183.102 20.4613 182.07 21.4912 180.796 21.4912C180.494 21.4911 180.194 21.4317 179.915 21.3163C179.635 21.201 179.381 21.0321 179.168 20.8191C178.953 20.6065 178.783 20.3538 178.667 20.0757C178.551 19.7975 178.492 19.4993 178.492 19.1982"/><path fill="#fff" d="M182.164 20.4771C182.123 20.4613 182.091 20.4138 182.074 20.3427C182.057 20.2666 182.048 20.1889 182.047 20.111L182.034 19.7152C182.028 19.5294 181.988 19.3966 181.921 19.308C181.879 19.2487 181.814 19.2013 181.739 19.157C181.831 19.0969 181.914 19.0246 181.972 18.9333C182.05 18.8099 182.091 18.6541 182.091 18.4648C182.091 18.1022 181.937 17.8464 181.638 17.7124C181.479 17.6412 181.287 17.6096 181.052 17.6096H179.621V20.6756H180.153V19.4183H180.995C181.148 19.4183 181.262 19.4342 181.327 19.463C181.436 19.5164 181.495 19.6251 181.502 19.7912L181.525 20.2814C181.531 20.4012 181.538 20.4767 181.547 20.521C181.562 20.5684 181.569 20.606 181.587 20.6376L181.609 20.6756H182.204V20.4957L182.164 20.4767L182.164 20.4771ZM181.547 18.5027C181.547 18.6743 181.503 18.7882 181.417 18.851C181.319 18.9159 181.183 18.9518 181.011 18.9518H180.153V18.0852H181.064C181.186 18.0852 181.287 18.1022 181.36 18.137C181.487 18.2003 181.547 18.3228 181.547 18.5027Z"/></g><defs><clipPath id="clip0_62_2987"><rect width="36.904" height="27.852" fill="#fff" transform="translate(0.013916 0.947021)"/></clipPath><clipPath id="clip1_62_2987"><rect width="130.207" height="25.067" fill="#fff" transform="translate(53.6287 3.73218)"/></clipPath></defs></svg>