<svg xmlns="http://www.w3.org/2000/svg" width="56" height="29" fill="none" viewBox="0 0 56 29"><g clip-path="url(#clip0_62_2997)"><path fill="#92D13D" d="M1.53886 2.47846L2.25668 1.7698C3.3568 0.695446 5.15171 0.76402 6.15922 1.91846L16.095 13.3475C16.9635 14.3418 16.9519 15.8161 16.0718 16.7991L6.17089 27.8737C5.15182 29.0053 3.38003 29.0623 2.29158 27.9881L1.57355 27.2794C0.600831 26.3194 0.531351 24.7878 1.41147 23.7364L7.34049 16.7189C8.15112 15.7589 8.16268 14.3759 7.37528 13.393L1.35355 5.96418C0.496558 4.93569 0.577706 3.42707 1.53886 2.47856V2.47846Z"/><path fill="#fff" fill-rule="evenodd" d="M21.1891 23.4052H18.8847V10.1817H21.1891V11.5647C21.5134 10.6389 22.683 9.97601 24.281 9.97601C25.6475 9.97601 26.794 10.456 27.7204 11.4161C28.6584 12.3647 29.1216 13.5419 29.1216 14.9591C29.1216 16.3763 28.6584 17.5534 27.7204 18.525C26.794 19.4736 25.6476 19.9422 24.281 19.9422C22.683 19.9422 21.5135 19.2793 21.1891 18.3536V23.4052ZM21.0154 14.9706C21.0154 14.1362 21.305 13.4276 21.8608 12.879C22.4398 12.3304 23.1579 12.0446 23.98 12.0446C24.8022 12.0446 25.4854 12.3304 26.0182 12.879C26.574 13.439 26.8402 14.1362 26.8402 14.9706C26.8402 15.8049 26.574 16.5134 26.0182 17.062C25.4739 17.6106 24.8138 17.8964 23.98 17.8964C23.1462 17.8964 22.4399 17.6107 21.8608 17.0621C21.305 16.502 21.0154 15.8049 21.0154 14.9706Z" clip-rule="evenodd"/><path fill="#fff" d="M29.9206 6.52441H32.2251V16.6163C32.2251 17.5421 32.5378 17.942 33.3831 17.942C33.6494 17.942 33.8811 17.9192 34.0779 17.8621V19.8964C33.8117 19.9764 33.441 20.0108 32.9778 20.0108C30.9397 20.0108 29.9207 18.9822 29.9207 16.9134L29.9206 6.52441Z"/><path fill="#fff" fill-rule="evenodd" d="M41.8829 11.5646V10.1817H44.1874V16.8563C44.1874 17.6677 44.3843 17.9764 44.8939 17.9764C44.9822 17.9764 45.0845 17.9672 45.1918 17.9575C45.2535 17.9519 45.3168 17.9462 45.3801 17.942V19.7822C45.1254 19.8736 44.7433 19.9308 44.2453 19.9308C43.6895 19.9308 43.2494 19.8393 42.902 19.6221C42.4735 19.3364 42.2072 18.9592 42.1146 18.4678C41.4429 19.4736 40.3312 19.965 38.7911 19.965C37.4246 19.965 36.2782 19.4964 35.3286 18.525C34.4022 17.5534 33.939 16.3763 33.939 14.9591C33.939 13.5419 34.4022 12.3647 35.3286 11.4161C36.2666 10.4446 37.4246 9.97601 38.7911 9.97601C40.3428 9.97601 41.5124 10.6617 41.8829 11.5646ZM42.0567 14.9591C42.0567 15.7934 41.7672 16.502 41.1881 17.0506C40.6323 17.5992 39.9259 17.885 39.0922 17.885C38.2584 17.885 37.5867 17.5992 37.0309 17.0506C36.4866 16.4906 36.2202 15.7934 36.2202 14.9591C36.2202 14.1248 36.4982 13.4162 37.0309 12.8676C37.5983 12.319 38.27 12.0332 39.092 12.0332C39.9143 12.0332 40.6323 12.319 41.1881 12.8676C41.7671 13.4275 42.0567 14.1248 42.0567 14.9591Z" clip-rule="evenodd"/><path fill="#49691F" fill-rule="evenodd" d="M7.32773 16.742L1.39871 23.7595C0.518594 24.7996 0.588074 26.3424 1.56079 27.3025L2.27872 28.0111C3.36727 29.0855 5.13906 29.0283 6.15814 27.8968L8.30045 25.4967C9.11109 23.9195 9.56276 22.1365 9.56276 20.2508C9.56276 17.9193 8.86796 15.7591 7.6867 13.942C8.1267 14.8334 8.01097 15.9419 7.32773 16.742Z" clip-rule="evenodd"/><path fill="#fff" d="M46.1792 21.6565C46.4688 21.748 46.8277 21.8052 47.2562 21.8052C47.6267 21.8052 47.8931 21.7251 48.1015 21.5994C48.31 21.4737 48.5067 21.1765 48.6574 20.788L48.9122 20.1023L44.859 10.1817H47.1751L50.0238 17.3935L52.6989 10.1817H55.0265L50.6838 21.3023C50.3944 22.0452 50.047 22.6166 49.6416 23.0053C49.0627 23.531 48.2984 23.8053 47.314 23.8053C46.8856 23.8053 46.5035 23.7482 46.1792 23.6567V21.6565Z"/></g><defs><clipPath id="clip0_62_2997"><rect width="54.311" height="27.852" fill="#fff" transform="translate(0.739258 0.947021)"/></clipPath></defs></svg>