<svg width="12" height="12" viewBox="0 0 12 12" fill="none" xmlns="http://www.w3.org/2000/svg">
    <g clip-path="url(#clip0_62_2906)">
        <path d="M11.4833 4.7006L8.04175 4.2005L6.50267 1.08199C6.44102 0.957133 6.3211 0.894592 6.20117 0.894592L6.20162 9.86547L9.27933 11.4837C9.52613 11.6132 9.81418 11.4039 9.7671 11.1293L9.17936 7.70143L11.6695 5.274C11.8693 5.07943 11.759 4.74073 11.4833 4.7006Z" fill="#FFB820"/>
        <path d="M8.45672 7.46674C8.45672 7.46674 8.98753 10.5608 8.98932 10.5711C8.98753 10.5709 6.24448 9.87623 6.20167 9.86547C6.20122 9.86525 3.12306 11.4837 3.12306 11.4837C2.87626 11.6132 2.58821 11.4039 2.63529 11.1293L3.22303 7.70143L0.732842 5.274C0.533115 5.07943 0.643402 4.74073 0.919119 4.7006L4.36065 4.2005L5.89973 1.08199C5.96137 0.957133 6.0813 0.894592 6.20122 0.894592L7.59527 4.81515L10.7124 5.26818L8.45672 7.46674Z" fill="#FFD06A"/>
    </g>
    <defs>
        <clipPath id="clip0_62_2906">
            <rect width="11.1407" height="11.1407" fill="white" transform="translate(0.630859 0.638733)"/>
        </clipPath>
    </defs>
</svg>
