<svg xmlns="http://www.w3.org/2000/svg" width="116" height="29" fill="none" viewBox="0 0 116 29"><g clip-path="url(#clip0_62_2963)"><path fill="#fff" d="M115.844 6.79679H115.298V5.43259L114.752 6.33297H114.479L114.206 5.43259V6.79679H113.66V4.47765H114.206L114.752 5.73272L115.298 4.47765H115.844V6.79679ZM113.387 4.88691H112.84V6.79679H112.294V4.88691H111.748V4.47765H113.387V4.88691ZM110.382 13.4814H108.744V8.24285L106.832 11.6534H105.739L104.101 8.24285V13.4814H102.189V4.47765H104.101L106.286 9.33421L108.744 4.47765H110.382V13.4814ZM99.7311 13.4814H97.8194L97.2731 11.8989H94.269L93.7227 13.4814H91.811L95.0883 4.47765H96.4538L99.7311 13.4814ZM97 10.3983L95.9076 7.1242L94.8152 10.3983H97ZM89.0799 13.4814H83.0715V4.47765H89.0799V6.03284H84.9833V8.161H88.5337V9.71619H84.9833V11.9262H89.0799V13.4814ZM80.3405 6.03284H78.1556V13.4814H76.2438V6.03284H73.7859V4.47765H80.3405V6.03284ZM71.601 10.8348C71.601 12.6901 69.9624 13.536 68.3237 13.5632C66.6851 13.5632 65.5926 13.1813 65.0464 12.3627L66.1388 11.2441C66.6851 11.7352 67.2313 12.008 68.3237 12.008C69.4161 12.008 69.9624 11.6261 69.9624 10.8894C69.9624 10.2073 69.4161 9.90718 68.8699 9.79804L67.7775 9.66162C66.1388 9.44335 65.3195 8.59754 65.3195 7.1242C65.3195 6.30568 65.5926 5.65086 66.1388 5.13247C66.6851 4.64135 67.5044 4.3958 68.3237 4.3958C69.6892 4.3958 70.5086 4.75049 71.3279 5.43259L70.2355 6.55124C69.6892 6.14198 69.143 5.9237 68.3237 5.9237C67.5044 5.97827 66.9582 6.2784 66.9582 7.06963C66.9582 7.69717 67.5044 7.99729 68.0506 8.05186L69.143 8.21556C70.5086 8.37927 71.601 9.30693 71.601 10.8348ZM57.6725 9.19779C57.6725 11.6534 55.4876 13.6451 53.0297 13.6451C50.5717 13.6451 48.6599 11.6534 48.6599 9.19779C48.6599 6.76951 50.5717 4.77777 53.0297 4.77777C55.4876 4.77777 57.6725 6.76951 57.6725 9.19779ZM53.0297 0.958008C48.6599 0.958008 44.8364 4.61407 44.8364 9.17051L39.6474 16.5645C39.3743 16.5369 39.3743 16.5099 39.1012 16.5099C38.0087 16.5099 36.9163 16.8373 35.8239 17.383L12.5005 7.99729C11.8723 5.21432 9.38703 3.14073 6.43747 3.14073C3.05093 3.14073 0.259766 5.9237 0.259766 9.33421C0.259766 12.7174 3.05093 15.5004 6.43747 15.5004C7.6121 15.5004 8.67695 15.2003 9.60579 14.6273L33.0931 24.013C33.6393 26.8779 36.0973 28.7877 39.1014 28.7877C42.1056 28.7877 44.8367 26.3322 45.1098 23.3036L53.0299 17.5194C57.6728 17.5194 61.4963 13.8088 61.4963 9.22507C61.496 4.66864 57.6725 0.958008 53.0297 0.958008ZM53.0297 3.68641C56.307 3.68641 58.7649 6.16926 58.7649 9.22507C58.7649 12.3082 56.307 14.791 53.0297 14.791C50.0255 14.791 47.5675 12.3082 47.5675 9.22507C47.5675 6.16926 50.0255 3.68641 53.0297 3.68641ZM6.43747 4.77777C8.18536 4.77777 9.71476 5.73272 10.4797 7.17877L8.21267 6.2784C6.38284 5.62358 4.36185 6.52395 3.62445 8.3247C2.91437 10.1527 3.7337 12.199 5.5089 12.9903L7.42065 13.7542C7.11996 13.8361 6.79251 13.8634 6.43719 13.8634C3.92487 13.8634 1.9036 11.8443 1.9036 9.33421C1.90387 6.79679 3.92487 4.77777 6.43747 4.77777ZM39.1012 18.147C41.5591 18.147 43.4709 20.1933 43.4709 22.7034C43.4709 25.2408 41.5591 27.1507 39.1012 27.1507C37.1894 27.1507 35.8239 26.3322 35.0045 24.8315C35.8239 25.2408 36.3701 25.5137 37.1894 25.7865C39.1012 26.605 41.0129 25.5136 41.8322 23.7675C42.3785 22.0761 41.8322 19.757 39.9205 19.0203L38.0087 18.2564C38.2818 18.2015 38.8281 18.147 39.1012 18.147Z"/></g><defs><clipPath><rect width="115.585" height="27.852" fill="#fff" transform="translate(0.259766 0.947021)"/></clipPath></defs></svg>