<svg width="40" height="40" viewBox="0 0 40 40" fill="none" xmlns="http://www.w3.org/2000/svg">
    <g clip-path="url(#clip0_62_3071)">
    <rect x="0.296875" y="0.0338745" width="39.6888" height="39.6888" fill="url(#paint0_linear_62_3071)"/>
    <path d="M14.9204 15.3525L15.2599 15.1828C15.3671 15.1291 15.4573 15.0467 15.5203 14.9448C15.5833 14.8428 15.6167 14.7253 15.6167 14.6054V13.9599H14.0247C13.9137 13.9599 13.8038 13.9818 13.7013 14.0242C13.5988 14.0667 13.5056 14.1289 13.4272 14.2074C13.3487 14.2858 13.2865 14.379 13.244 14.4815C13.2015 14.584 13.1797 14.6939 13.1797 14.8049C13.1797 14.936 13.2102 15.0654 13.2689 15.1828L13.5278 15.7006H14.5723L14.9204 15.3525Z" fill="#B36F42"/>
    <path d="M13.5273 15.3525L13.8755 15.0044C13.9212 15.0958 13.9845 15.1774 14.0617 15.2444C14.139 15.3113 14.2286 15.3625 14.3256 15.3948C14.4226 15.4271 14.525 15.44 14.627 15.4328C14.7289 15.4255 14.8285 15.3983 14.9199 15.3525V16.0488C14.9199 16.2335 14.8466 16.4106 14.716 16.5412C14.5854 16.6718 14.4083 16.7451 14.2236 16.7451C14.039 16.7451 13.8619 16.6718 13.7313 16.5412C13.6007 16.4106 13.5273 16.2335 13.5273 16.0488V15.3525Z" fill="#FFCEB6"/>
    <path d="M18.75 18.834V19.8784L18.0537 20.9229H16.6611L15.9648 19.8784V18.834H18.75Z" fill="#F7C04A"/>
    <path d="M13.1787 23.3821C13.1788 23.8185 13.0303 24.242 12.7575 24.5828L11.7862 25.7969V27.5377L11.438 27.8858L9.69727 26.1451L10.176 25.4749L11.438 23.708L10.5063 21.5339C10.4319 21.3605 10.3935 21.1738 10.3936 20.9851V20.277H12.4824V21.271L13.0412 22.6679C13.1319 22.8951 13.1785 23.1375 13.1787 23.3821Z" fill="#445496"/>
    <path d="M12.8307 19.8784L14.1388 18.5703C14.3555 18.3536 14.4868 18.066 14.5085 17.7603C14.5302 17.4546 14.441 17.1514 14.2571 16.9062C14.1385 16.7481 13.9847 16.6197 13.8079 16.5313C13.6312 16.443 13.4362 16.3969 13.2386 16.3969C12.9068 16.3969 12.5816 16.4893 12.2993 16.6638C12.0171 16.8382 11.789 17.0878 11.6406 17.3845L10.572 19.5218C10.5152 19.6354 10.4714 19.755 10.4414 19.8784H12.8307Z" fill="#ED6445"/>
    <path d="M18.053 18.834V19.1821H17.0086L16.1586 19.8192C15.7976 20.09 15.3569 20.233 14.9057 20.226C14.4544 20.219 14.0184 20.0623 13.6659 19.7805L13.625 19.7479L14.6694 18.3553L15.2678 18.834L15.9454 18.3823C16.2256 18.1957 16.5618 18.1118 16.8968 18.145C17.2318 18.1781 17.545 18.3263 17.7832 18.5642L18.053 18.834Z" fill="#FFCEB6"/>
    <path d="M16.6602 20.9229H18.0527V25.1006H16.6602V20.9229Z" fill="#F7DFA1"/>
    <path d="M16.6602 26.8413V25.1005H18.749L19.7935 25.7968V26.8413H16.6602Z" fill="#F7C04A"/>
    <path d="M18.0537 27.5375C18.4383 27.5375 18.75 27.2258 18.75 26.8413C18.75 26.4567 18.4383 26.145 18.0537 26.145C17.6692 26.145 17.3574 26.4567 17.3574 26.8413C17.3574 27.2258 17.6692 27.5375 18.0537 27.5375Z" fill="#8796C4"/>
    <path d="M18.0523 27.8857C17.8457 27.8857 17.6438 27.8244 17.472 27.7097C17.3002 27.5949 17.1664 27.4318 17.0873 27.241C17.0083 27.0501 16.9876 26.8401 17.0279 26.6375C17.0682 26.4349 17.1677 26.2488 17.3137 26.1027C17.4598 25.9567 17.6459 25.8572 17.8485 25.8169C18.0511 25.7766 18.2611 25.7973 18.4519 25.8763C18.6428 25.9554 18.8059 26.0892 18.9207 26.261C19.0354 26.4328 19.0967 26.6347 19.0967 26.8413C19.0964 27.1182 18.9862 27.3836 18.7904 27.5794C18.5946 27.7752 18.3292 27.8854 18.0523 27.8857ZM18.0523 26.4931C17.9834 26.4931 17.9161 26.5135 17.8588 26.5518C17.8016 26.59 17.757 26.6444 17.7306 26.708C17.7043 26.7716 17.6974 26.8416 17.7108 26.9092C17.7242 26.9767 17.7574 27.0387 17.8061 27.0874C17.8548 27.1361 17.9168 27.1693 17.9843 27.1827C18.0519 27.1962 18.1219 27.1893 18.1855 27.1629C18.2491 27.1366 18.3035 27.0919 18.3417 27.0347C18.38 26.9774 18.4004 26.9101 18.4004 26.8413C18.4003 26.749 18.3636 26.6605 18.2983 26.5952C18.233 26.5299 18.1446 26.4932 18.0523 26.4931Z" fill="#56679C"/>
    <path d="M21.5352 25.1005H29.8907V26.8413H21.5352V25.1005Z" fill="#B36F42"/>
    <path d="M21.5352 26.8412H22.9277V27.8857H21.5352V26.8412Z" fill="#9E593C"/>
    <path d="M28.498 26.8412H29.8906V27.8857H28.498V26.8412Z" fill="#9E593C"/>
    <path d="M19.793 25.7968H21.5337V26.8413H19.793V25.7968Z" fill="#F7DFA1"/>
    <path d="M21.5352 21.6191H25.7129V25.1006H21.5352V21.6191Z" fill="#F7C04A"/>
    <path d="M23.2754 21.9673H23.9717V23.0117H23.2754V21.9673Z" fill="#F7DFA1"/>
    <path d="M25.7129 21.6191H29.8907V25.1006H25.7129V21.6191Z" fill="#F7C04A"/>
    <path d="M27.4531 21.9673H28.1494V23.0117H27.4531V21.9673Z" fill="#F7DFA1"/>
    <path d="M21.5352 18.1377H25.7129V21.6192H21.5352V18.1377Z" fill="#F7C04A"/>
    <path d="M23.2754 18.4858H23.9717V19.5303H23.2754V18.4858Z" fill="#F7DFA1"/>
    <path d="M25.7129 18.1377H29.8907V21.6192H25.7129V18.1377Z" fill="#F7C04A"/>
    <path d="M27.4531 18.4858H28.1494V19.5303H27.4531V18.4858Z" fill="#F7DFA1"/>
    <path d="M21.5352 14.6562H25.7129V18.1377H21.5352V14.6562Z" fill="#F7C04A"/>
    <path d="M23.2754 15.0044H23.9717V16.0488H23.2754V15.0044Z" fill="#F7DFA1"/>
    <path d="M25.7129 14.6562H29.8907V18.1377H25.7129V14.6562Z" fill="#F7C04A"/>
    <path d="M27.4531 15.0044H28.1494V16.0488H27.4531V15.0044Z" fill="#F7DFA1"/>
    <path d="M21.5352 11.1747H25.7129V14.6562H21.5352V11.1747Z" fill="#F7C04A"/>
    <path d="M23.2754 11.1747H23.9717V12.2192H23.2754V11.1747Z" fill="#F7DFA1"/>
    <path d="M25.7129 11.1747H29.8907V14.6562H25.7129V11.1747Z" fill="#F7C04A"/>
    <path d="M27.4531 11.1747H28.1494V12.2192H27.4531V11.1747Z" fill="#F7DFA1"/>
    <path d="M15.2686 26.4932V22.7755C15.2686 22.53 15.2037 22.2888 15.0805 22.0765C14.9572 21.8641 14.7801 21.6882 14.5669 21.5663L12.8316 20.5747V19.8784H10.4423C10.4106 20.009 10.3945 20.1428 10.3945 20.2772C10.3945 20.5784 10.4751 20.8741 10.6278 21.1337C10.7806 21.3933 11 21.6074 11.2633 21.7537L13.5279 23.0117L13.876 26.8414L15.2686 26.4932Z" fill="#445496"/>
    <path d="M11.7364 21.6238C11.5684 21.5304 11.3564 21.5909 11.2629 21.7589C11.1695 21.9269 11.23 22.1389 11.398 22.2324L12.6024 22.9021C12.7705 22.9955 12.9825 22.9351 13.0759 22.767C13.1694 22.599 13.1089 22.387 12.9408 22.2936L11.7364 21.6238Z" fill="#2C3E91"/>
    <path d="M15.2676 26.4931L13.875 26.8413V27.8857H16.312V27.1894L15.2676 26.4931Z" fill="#6D7EB3"/>
    <path d="M14.6692 18.3553L13.6248 19.7479L12.4824 18.834L13.5269 17.4414L14.6692 18.3553Z" fill="#ED6445"/>
    <path d="M13.5301 17.4433L13.5301 17.4434C13.4099 17.5935 13.4342 17.8127 13.5844 17.9329L14.1831 18.412C14.3333 18.5322 14.5525 18.5079 14.6726 18.3577L14.6727 18.3577C14.7928 18.2075 14.7685 17.9883 14.6183 17.8682L14.0196 17.389C13.8694 17.2688 13.6503 17.2932 13.5301 17.4433Z" fill="#DE402F"/>
    <path d="M12.4852 18.8365L12.4852 18.8365C12.365 18.9867 12.3893 19.2058 12.5395 19.326L13.1382 19.8051C13.2884 19.9253 13.5075 19.901 13.6277 19.7508L13.6277 19.7508C13.7479 19.6006 13.7236 19.3815 13.5734 19.2613L12.9747 18.7822C12.8245 18.662 12.6054 18.6863 12.4852 18.8365Z" fill="#DE402F"/>
    <path d="M11.7862 25.7971V27.5378L11.438 27.886L9.69727 26.1452L10.176 25.475L11.7862 25.7971Z" fill="#6D7EB3"/>
    <path d="M29.8907 15.0044V14.3081H26.0611V11.1747H25.3648V14.3081H21.5352V15.0044H25.3648V17.7895H21.5352V18.4858H25.3648V21.271H21.5352V21.9673H25.3648V25.1006H26.0611V21.9673H29.8907V21.271H26.0611V18.4858H29.8907V17.7895H26.0611V15.0044H29.8907Z" fill="#F5A431"/>
    <path d="M0.296875 -0.586263H-0.323263V0.0338745V14.9172V16.4143L0.735379 15.3557L15.6187 0.472378L16.6773 -0.586263H15.1802H0.296875Z" fill="#57576A" stroke="#20202E" stroke-width="1.24028"/>
    <path d="M41.2266 41.5831L41.8467 41.5831L41.8467 40.963L41.8467 26.0797L41.8467 24.5825L40.7881 25.6412L25.9048 40.5245L24.8461 41.5831L26.3433 41.5831L41.2266 41.5831Z" fill="#57576A" stroke="#20202E" stroke-width="1.24028"/>
    </g>
    <defs>
    <linearGradient id="paint0_linear_62_3071" x1="30.5823" y1="12.0823" x2="9.85873" y2="13.0683" gradientUnits="userSpaceOnUse">
    <stop stop-color="#7B61FF"/>
    <stop offset="1" stop-color="#AA82FF"/>
    </linearGradient>
    <clipPath id="clip0_62_3071">
    <rect width="38.9925" height="38.9925" fill="white" transform="translate(0.296875 0.0338745)"/>
    </clipPath>
    </defs>
</svg>
