<svg width="93" height="29" viewBox="0 0 93 29" fill="none" xmlns="http://www.w3.org/2000/svg">
    <g clip-path="url(#clip0_62_2971)">
    <path d="M89.8614 23.3297L84.2749 15.8245L78.773 23.3297H76.5229L83.1885 14.241L77.1011 5.9845H79.3512L84.2712 12.7385L89.2759 5.9845H91.526L85.4423 14.241L92.1115 23.3297H89.8614ZM59.4244 14.9075C59.0893 14.5724 58.6732 14.322 58.257 14.1563C59.5091 13.4897 60.3414 12.1566 60.3414 10.6541C60.3414 9.57139 59.9253 5.9845 54.7548 5.9845H47.7505V13.4897H45.4157C45.0806 13.9059 44.414 14.8228 44.1636 15.2427H47.7505V23.3297H54.7548C58.5922 23.3297 60.9269 21.4111 60.9269 18.244C60.9233 16.9072 60.4261 15.7398 59.4244 14.9075ZM49.6691 7.81845H54.7548C56.1727 7.81845 58.4228 8.15357 58.4228 10.5694C58.4228 12.4033 57.0896 13.4897 54.7548 13.4897H49.6691V7.81845ZM54.7548 21.4958H49.6691V15.158H54.7548C56.6735 15.158 59.0083 15.6588 59.0083 18.1593C59.0083 21.0796 56.3384 21.4958 54.7548 21.4958Z" fill="white"/>
    <path d="M70.015 5.56885C65.1797 5.56885 61.7585 9.32146 61.7585 14.6576C61.7585 19.9937 65.176 23.6617 70.015 23.6617C74.854 23.6617 78.2714 19.909 78.2714 14.6576C78.2678 9.32146 74.9313 5.56885 70.015 5.56885ZM70.015 21.8277C66.3471 21.8277 63.7618 18.8263 63.7618 14.6576C63.7618 10.4042 66.3471 7.4875 70.015 7.4875C73.6829 7.4875 76.2681 10.4889 76.2681 14.6576C76.3491 18.911 73.7639 21.8277 70.015 21.8277ZM46.7481 23.3302L40.1598 14.2415L46.1625 5.98499H43.9124L38.9924 12.7389L34.0724 5.98499H31.7376L37.825 14.2415L31.1558 23.3302H33.4906L38.9924 15.825L44.4943 23.3302H46.7481Z" fill="white"/>
    <path d="M28.1467 14.8711C28.1467 22.542 21.8088 28.7951 14.0532 28.7951C6.29755 28.7951 0.0444336 22.5457 0.0444336 14.8711C0.0444336 7.19646 6.38226 0.947021 14.1379 0.947021C21.8935 0.947021 28.1467 7.20014 28.1467 14.8711Z" fill="#666666"/>
    <path d="M28.1467 14.8721C28.1467 22.543 21.8088 28.7961 14.0532 28.7961C6.29755 28.7961 0.0444336 22.543 0.0444336 14.8721C0.0444336 7.20114 6.38226 0.944336 14.1379 0.944336C21.8935 0.944336 28.1467 7.20114 28.1467 14.8721Z" fill="url(#paint0_radial_62_2971)"/>
    <path d="M28.1467 14.8721C28.1467 22.543 21.8088 28.7961 14.0532 28.7961C6.29755 28.7961 0.0444336 22.543 0.0444336 14.8721C0.0444336 7.20114 6.38226 0.944336 14.1379 0.944336C21.8935 0.944336 28.1467 7.20114 28.1467 14.8721Z" fill="url(#paint1_radial_62_2971)"/>
    <path d="M28.1467 14.8721C28.1467 22.543 21.8088 28.7961 14.0532 28.7961C6.29755 28.7961 0.0444336 22.543 0.0444336 14.8721C0.0444336 7.20114 6.38226 0.944336 14.1379 0.944336C21.8935 0.944336 28.1467 7.20114 28.1467 14.8721Z" fill="url(#paint2_radial_62_2971)"/>
    <path d="M10.5654 8.80957C9.05181 10.7282 2.50039 18.3255 3.08962 23.4996C3.50944 24.0005 3.92926 24.5013 4.43378 24.9174C4.34908 20.9954 9.05549 16.7383 12.6682 13.4828L10.5654 8.80957Z" fill="#00A54D"/>
    <path d="M10.5654 8.80957C9.05181 10.7282 2.50039 18.3255 3.08962 23.4996C3.50944 24.0005 3.92926 24.5013 4.43378 24.9174C4.34908 20.9954 9.05549 16.7383 12.6682 13.4828L10.5654 8.80957Z" fill="url(#paint3_linear_62_2971)"/>
    <path d="M6.75435 3.07927C5.9147 3.58011 5.15608 4.16197 4.48584 4.74751C6.75435 5.16365 8.93815 7.167 10.1976 8.75422C11.2914 10.4225 11.8769 11.925 12.6355 13.5122C13.14 13.0961 13.6446 12.6799 14.2338 12.1754V5.32937C12.4661 4.33137 9.77779 2.99457 6.75435 3.07927Z" fill="#02A74D"/>
    <path d="M6.75435 3.07628C5.9147 3.57712 5.15976 4.16266 4.48584 4.74451C6.75435 5.16065 8.93815 7.16401 10.1976 8.75122C11.2914 10.4195 11.8769 11.922 12.6355 13.5092C13.14 13.0931 13.6446 12.6732 14.2301 12.1724V5.33005C12.4661 4.32837 9.77779 2.99526 6.75435 3.07628Z" fill="url(#paint4_linear_62_2971)"/>
    <path d="M17.6887 8.8136C19.1949 10.7359 25.7279 18.3369 25.1387 23.5147C24.7188 24.0155 24.3027 24.5164 23.7982 24.9362C23.8829 21.0105 19.1949 16.7497 15.5933 13.4942L17.6887 8.8136Z" fill="#00A54D"/>
    <path d="M17.6889 8.8136C19.1951 10.7359 25.7281 18.3369 25.1426 23.5147C24.7227 24.0155 24.3066 24.5164 23.8021 24.9362C23.8868 21.0105 19.1951 16.7497 15.5972 13.4942L17.6889 8.8136Z" fill="url(#paint5_linear_62_2971)"/>
    <path d="M21.4846 3.07537C22.3206 3.57621 23.0755 4.16174 23.7458 4.74728C21.4846 5.16342 19.3082 7.17046 18.0524 8.75768C16.966 10.4296 16.3768 11.9321 15.6256 13.5193C15.121 13.0995 14.6202 12.6834 14.0347 12.1825V5.33282C15.7103 4.32746 18.4722 2.99067 21.4846 3.07537Z" fill="#02A74D"/>
    <path d="M21.4883 3.07537C22.3243 3.57621 23.0792 4.16174 23.7495 4.74728C21.4883 5.16342 19.3082 7.17046 18.0524 8.75768C16.9624 10.4296 16.3768 11.9321 15.6256 13.5193C15.1247 13.1032 14.6202 12.6834 14.0347 12.1825V5.33282C15.7103 4.32746 18.4722 2.99067 21.4883 3.07537Z" fill="url(#paint6_linear_62_2971)"/>
    </g>
    <defs>
    <radialGradient id="paint0_radial_62_2971" cx="0" cy="0" r="1" gradientUnits="userSpaceOnUse" gradientTransform="translate(13.8747 13.3918) rotate(90) scale(20.2645 17.9945)">
    <stop stop-color="white"/>
    <stop offset="1" stop-color="white" stop-opacity="0"/>
    </radialGradient>
    <radialGradient id="paint1_radial_62_2971" cx="0" cy="0" r="1" gradientUnits="userSpaceOnUse" gradientTransform="translate(13.8747 13.3918) rotate(90) scale(20.2645 17.9945)">
    <stop stop-color="white"/>
    <stop offset="1" stop-color="white" stop-opacity="0"/>
    </radialGradient>
    <radialGradient id="paint2_radial_62_2971" cx="0" cy="0" r="1" gradientUnits="userSpaceOnUse" gradientTransform="translate(13.8747 13.3918) rotate(90) scale(20.2645 17.9945)">
    <stop stop-color="white"/>
    <stop offset="1" stop-color="white" stop-opacity="0"/>
    </radialGradient>
    <linearGradient id="paint3_linear_62_2971" x1="9.04949" y1="18.7308" x2="5.75253" y2="14.8112" gradientUnits="userSpaceOnUse">
    <stop stop-color="#97CA43"/>
    <stop offset="1" stop-color="#97CA43" stop-opacity="0"/>
    </linearGradient>
    <linearGradient id="paint4_linear_62_2971" x1="8.90451" y1="9.45356" x2="11.9047" y2="2.70585" gradientUnits="userSpaceOnUse">
    <stop stop-color="#97CA43"/>
    <stop offset="1" stop-color="#97CA43" stop-opacity="0"/>
    </linearGradient>
    <linearGradient id="paint5_linear_62_2971" x1="21.0675" y1="17.2525" x2="17.7601" y2="13.3531" gradientUnits="userSpaceOnUse">
    <stop stop-color="#97CA43"/>
    <stop offset="1" stop-color="#97CA43" stop-opacity="0"/>
    </linearGradient>
    <linearGradient id="paint6_linear_62_2971" x1="17.1853" y1="7.80209" x2="19.769" y2="3.57117" gradientUnits="userSpaceOnUse">
    <stop stop-color="#97CA43"/>
    <stop offset="1" stop-color="#97CA43" stop-opacity="0"/>
    </linearGradient>
    <clipPath id="clip0_62_2971">
    <rect width="92.066" height="27.8518" fill="white" transform="translate(0.0444336 0.947021)"/>
    </clipPath>
    </defs>
</svg>
